<svg xmlns="http://www.w3.org/2000/svg" xmlns:xlink="http://www.w3.org/1999/xlink" version="1.1" class="marks" width="679" height="242" viewBox="0 0 679 242"><rect width="679" height="242" fill="white"/><g fill="none" stroke-miterlimit="10" transform="translate(73,5)"><g class="mark-group role-frame root" role="graphics-object" aria-roledescription="group mark container"><g transform="translate(0,0)"><path class="background" aria-hidden="true" d="M0.5,0.5h600v200h-600Z" stroke="#ddd"/><g><g class="mark-group role-axis" aria-hidden="true"><g transform="translate(0.5,200.5)"><path class="background" aria-hidden="true" d="M0,0h0v0h0Z" pointer-events="none"/><g><g class="mark-rule role-axis-grid" pointer-events="none"><line transform="translate(0,0)" x2="0" y2="-200" stroke="#ddd" stroke-width="1" opacity="1"/><line transform="translate(38,0)" x2="0" y2="-200" stroke="#ddd" stroke-width="1" opacity="1"/><line transform="translate(75,0)" x2="0" y2="-200" stroke="#ddd" stroke-width="1" opacity="1"/><line transform="translate(113,0)" x2="0" y2="-200" stroke="#ddd" stroke-width="1" opacity="1"/><line transform="translate(150,0)" x2="0" y2="-200" stroke="#ddd" stroke-width="1" opacity="1"/><line transform="translate(188,0)" x2="0" y2="-200" stroke="#ddd" stroke-width="1" opacity="1"/><line transform="translate(225,0)" x2="0" y2="-200" stroke="#ddd" stroke-width="1" opacity="1"/><line transform="translate(263,0)" x2="0" y2="-200" stroke="#ddd" stroke-width="1" opacity="1"/><line transform="translate(300,0)" x2="0" y2="-200" stroke="#ddd" stroke-width="1" opacity="1"/><line transform="translate(338,0)" x2="0" y2="-200" stroke="#ddd" stroke-width="1" opacity="1"/><line transform="translate(375,0)" x2="0" y2="-200" stroke="#ddd" stroke-width="1" opacity="1"/><line transform="translate(413,0)" x2="0" y2="-200" stroke="#ddd" stroke-width="1" opacity="1"/><line transform="translate(450,0)" x2="0" y2="-200" stroke="#ddd" stroke-width="1" opacity="1"/><line transform="translate(488,0)" x2="0" y2="-200" stroke="#ddd" stroke-width="1" opacity="1"/><line transform="translate(525,0)" x2="0" y2="-200" stroke="#ddd" stroke-width="1" opacity="1"/><line transform="translate(563,0)" x2="0" y2="-200" stroke="#ddd" stroke-width="1" opacity="1"/><line transform="translate(600,0)" x2="0" y2="-200" stroke="#ddd" stroke-width="1" opacity="1"/></g></g><path class="foreground" aria-hidden="true" d="" pointer-events="none" display="none"/></g></g><g class="mark-group role-axis" role="graphics-symbol" aria-roledescription="axis" aria-label="X-axis titled 'Time (s)' for a linear scale with values from 0.000 to 0.008"><g transform="translate(0.5,200.5)"><path class="background" aria-hidden="true" d="M0,0h0v0h0Z" pointer-events="none"/><g><g class="mark-rule role-axis-tick" pointer-events="none"><line transform="translate(0,0)" x2="0" y2="5" stroke="#888" stroke-width="1" opacity="1"/><line transform="translate(38,0)" x2="0" y2="5" stroke="#888" stroke-width="1" opacity="1"/><line transform="translate(75,0)" x2="0" y2="5" stroke="#888" stroke-width="1" opacity="1"/><line transform="translate(113,0)" x2="0" y2="5" stroke="#888" stroke-width="1" opacity="1"/><line transform="translate(150,0)" x2="0" y2="5" stroke="#888" stroke-width="1" opacity="1"/><line transform="translate(188,0)" x2="0" y2="5" stroke="#888" stroke-width="1" opacity="1"/><line transform="translate(225,0)" x2="0" y2="5" stroke="#888" stroke-width="1" opacity="1"/><line transform="translate(263,0)" x2="0" y2="5" stroke="#888" stroke-width="1" opacity="1"/><line transform="translate(300,0)" x2="0" y2="5" stroke="#888" stroke-width="1" opacity="1"/><line transform="translate(338,0)" x2="0" y2="5" stroke="#888" stroke-width="1" opacity="1"/><line transform="translate(375,0)" x2="0" y2="5" stroke="#888" stroke-width="1" opacity="1"/><line transform="translate(413,0)" x2="0" y2="5" stroke="#888" stroke-width="1" opacity="1"/><line transform="translate(450,0)" x2="0" y2="5" stroke="#888" stroke-width="1" opacity="1"/><line transform="translate(488,0)" x2="0" y2="5" stroke="#888" stroke-width="1" opacity="1"/><line transform="translate(525,0)" x2="0" y2="5" stroke="#888" stroke-width="1" opacity="1"/><line transform="translate(563,0)" x2="0" y2="5" stroke="#888" stroke-width="1" opacity="1"/><line transform="translate(600,0)" x2="0" y2="5" stroke="#888" stroke-width="1" opacity="1"/></g><g class="mark-text role-axis-label" pointer-events="none"><text text-anchor="start" transform="translate(0,15)" font-family="sans-serif" font-size="10px" fill="#000" opacity="1">0.0000</text><text text-anchor="middle" transform="translate(37.5,15)" font-family="sans-serif" font-size="10px" fill="#000" opacity="0">0.0005</text><text text-anchor="middle" transform="translate(75,15)" font-family="sans-serif" font-size="10px" fill="#000" opacity="1">0.0010</text><text text-anchor="middle" transform="translate(112.5,15)" font-family="sans-serif" font-size="10px" fill="#000" opacity="0">0.0015</text><text text-anchor="middle" transform="translate(150,15)" font-family="sans-serif" font-size="10px" fill="#000" opacity="1">0.0020</text><text text-anchor="middle" transform="translate(187.5,15)" font-family="sans-serif" font-size="10px" fill="#000" opacity="0">0.0025</text><text text-anchor="middle" transform="translate(225,15)" font-family="sans-serif" font-size="10px" fill="#000" opacity="1">0.0030</text><text text-anchor="middle" transform="translate(262.5,15)" font-family="sans-serif" font-size="10px" fill="#000" opacity="0">0.0035</text><text text-anchor="middle" transform="translate(300,15)" font-family="sans-serif" font-size="10px" fill="#000" opacity="1">0.0040</text><text text-anchor="middle" transform="translate(337.5,15)" font-family="sans-serif" font-size="10px" fill="#000" opacity="0">0.0045</text><text text-anchor="middle" transform="translate(375,15)" font-family="sans-serif" font-size="10px" fill="#000" opacity="1">0.0050</text><text text-anchor="middle" transform="translate(412.5,15)" font-family="sans-serif" font-size="10px" fill="#000" opacity="0">0.0055</text><text text-anchor="middle" transform="translate(450,15)" font-family="sans-serif" font-size="10px" fill="#000" opacity="1">0.0060</text><text text-anchor="middle" transform="translate(487.5,15)" font-family="sans-serif" font-size="10px" fill="#000" opacity="0">0.0065</text><text text-anchor="middle" transform="translate(525,15)" font-family="sans-serif" font-size="10px" fill="#000" opacity="1">0.0070</text><text text-anchor="middle" transform="translate(562.5,15)" font-family="sans-serif" font-size="10px" fill="#000" opacity="0">0.0075</text><text text-anchor="end" transform="translate(600,15)" font-family="sans-serif" font-size="10px" fill="#000" opacity="1">0.0080</text></g><g class="mark-rule role-axis-domain" pointer-events="none"><line transform="translate(0,0)" x2="600" y2="0" stroke="#888" stroke-width="1" opacity="1"/></g><g class="mark-text role-axis-title" pointer-events="none"><text text-anchor="middle" transform="translate(300,30)" font-family="sans-serif" font-size="11px" font-weight="bold" fill="#000" opacity="1">Time (s)</text></g></g><path class="foreground" aria-hidden="true" d="" pointer-events="none" display="none"/></g></g><g class="mark-group role-axis" role="graphics-symbol" aria-roledescription="axis" aria-label="Y-axis titled 'Compilation Type' for a discrete scale with 5 values: Clang -O0, Clang -O3, Optimized, Phi, Stack"><g transform="translate(0.5,0.5)"><path class="background" aria-hidden="true" d="M0,0h0v0h0Z" pointer-events="none"/><g><g class="mark-rule role-axis-tick" pointer-events="none"><line transform="translate(0,20)" x2="-5" y2="0" stroke="#888" stroke-width="1" opacity="1"/><line transform="translate(0,60)" x2="-5" y2="0" stroke="#888" stroke-width="1" opacity="1"/><line transform="translate(0,100)" x2="-5" y2="0" stroke="#888" stroke-width="1" opacity="1"/><line transform="translate(0,140)" x2="-5" y2="0" stroke="#888" stroke-width="1" opacity="1"/><line transform="translate(0,180)" x2="-5" y2="0" stroke="#888" stroke-width="1" opacity="1"/></g><g class="mark-text role-axis-label" pointer-events="none"><text text-anchor="end" transform="translate(-7,22.5)" font-family="sans-serif" font-size="10px" fill="#000" opacity="1">Clang -O0</text><text text-anchor="end" transform="translate(-7,62.5)" font-family="sans-serif" font-size="10px" fill="#000" opacity="1">Clang -O3</text><text text-anchor="end" transform="translate(-7,102.5)" font-family="sans-serif" font-size="10px" fill="#000" opacity="1">Optimized</text><text text-anchor="end" transform="translate(-7,142.5)" font-family="sans-serif" font-size="10px" fill="#000" opacity="1">Phi</text><text text-anchor="end" transform="translate(-7,182.5)" font-family="sans-serif" font-size="10px" fill="#000" opacity="1">Stack</text></g><g class="mark-rule role-axis-domain" pointer-events="none"><line transform="translate(0,0)" x2="0" y2="200" stroke="#888" stroke-width="1" opacity="1"/></g><g class="mark-text role-axis-title" pointer-events="none"><text text-anchor="middle" transform="translate(-56.576171875,100) rotate(-90) translate(0,-2)" font-family="sans-serif" font-size="11px" font-weight="bold" fill="#000" opacity="1">Compilation Type</text></g></g><path class="foreground" aria-hidden="true" d="" pointer-events="none" display="none"/></g></g><g class="mark-rule role-mark layer_0_marks" aria-hidden="true"><line transform="translate(58.70311500000004,20)" x2="9.72361875" y2="0" stroke="black"/><line transform="translate(44.76624000000003,60)" x2="4.396743750000006" y2="0" stroke="black"/><line transform="translate(29.141715000000033,180)" x2="5.019187499999994" y2="0" stroke="black"/><line transform="translate(27.419040000000045,140)" x2="3.580012499999995" y2="0" stroke="black"/><line transform="translate(32.45424000000003,100)" x2="7.262737500000021" y2="0" stroke="black"/></g><g class="mark-rule role-mark layer_1_marks" aria-hidden="true"><line transform="translate(78.08375250000003,20)" x2="486.73121249999997" y2="0" stroke="black"/><line transform="translate(59.22909000000005,60)" x2="175.2903" y2="0" stroke="black"/><line transform="translate(42.841308750000024,180)" x2="17.170106250000025" y2="0" stroke="black"/><line transform="translate(35.08799625000004,140)" x2="415.73259375000004" y2="0" stroke="black"/><line transform="translate(44.06341500000002,100)" x2="209.74552500000007" y2="0" stroke="black"/></g><g class="mark-rect role-mark layer_2_marks" role="graphics-object" aria-roledescription="rect mark container"><path aria-label="Time (s): 0.00091235645; Compilation Type: Clang -O0; upper_box_Time (s): 0.0010411167; Max of Time (s): 0.0075308662; Q3 of Time (s): 0.0010411167; Median of Time (s): 0.0009664332; Q1 of Time (s): 0.00091235645; Min of Time (s): 0.0007827082" role="graphics-symbol" aria-roledescription="box" d="M68.42673375000004,13h9.657018749999992v14h-9.657018749999992Z" fill="#1f77b4"/><path aria-label="Time (s): 0.00065550645; Compilation Type: Clang -O3; upper_box_Time (s): 0.0007897212; Max of Time (s): 0.0031269252; Q3 of Time (s): 0.0007897212; Median of Time (s): 0.0007050312; Q1 of Time (s): 0.00065550645; Min of Time (s): 0.0005968832" role="graphics-symbol" aria-roledescription="box" d="M49.16298375000004,53h10.066106250000011v14h-10.066106250000011Z" fill="#ff7f0e"/><path aria-label="Time (s): 0.0004554787; Compilation Type: Stack; upper_box_Time (s): 0.00057121745; Max of Time (s): 0.0008001522; Q3 of Time (s): 0.00057121745; Median of Time (s): 0.0005388937; Q1 of Time (s): 0.0004554787; Min of Time (s): 0.0003885562" role="graphics-symbol" aria-roledescription="box" d="M34.16090250000003,173h8.680406249999997v14h-8.680406249999997Z" fill="#9467bd"/><path aria-label="Time (s): 0.0004133207; Compilation Type: Phi; upper_box_Time (s): 0.00046783995; Max of Time (s): 0.0060109412; Q3 of Time (s): 0.00046783995; Median of Time (s): 0.0004292082; Q1 of Time (s): 0.0004133207; Min of Time (s): 0.0003655872" role="graphics-symbol" aria-roledescription="box" d="M30.99905250000004,133h4.0889437499999985v14h-4.0889437499999985Z" fill="#d62728"/><path aria-label="Time (s): 0.0005295597; Compilation Type: Optimized; upper_box_Time (s): 0.0005875122; Max of Time (s): 0.0033841192; Q3 of Time (s): 0.0005875122; Median of Time (s): 0.0005548017; Q1 of Time (s): 0.0005295597; Min of Time (s): 0.0004327232" role="graphics-symbol" aria-roledescription="box" d="M39.71697750000005,93h4.346437499999972v14h-4.346437499999972Z" fill="#2ca02c"/></g><g class="mark-rect role-mark layer_3_marks" aria-hidden="true"><path d="M71.98249000000004,13h1v14h-1Z" fill="white" opacity="0.7"/><path d="M52.377340000000025,53h1v14h-1Z" fill="white" opacity="0.7"/><path d="M39.917027500000025,173h1v14h-1Z" fill="white" opacity="0.7"/><path d="M31.69061500000003,133h1v14h-1Z" fill="white" opacity="0.7"/><path d="M41.11012750000003,93h1v14h-1Z" fill="white" opacity="0.7"/></g></g><path class="foreground" aria-hidden="true" d="" display="none"/></g></g></g></svg>