<svg xmlns="http://www.w3.org/2000/svg" xmlns:xlink="http://www.w3.org/1999/xlink" version="1.1" class="marks" width="679" height="242" viewBox="0 0 679 242"><rect width="679" height="242" fill="white"/><g fill="none" stroke-miterlimit="10" transform="translate(73,5)"><g class="mark-group role-frame root" role="graphics-object" aria-roledescription="group mark container"><g transform="translate(0,0)"><path class="background" aria-hidden="true" d="M0.5,0.5h600v200h-600Z" stroke="#ddd"/><g><g class="mark-group role-axis" aria-hidden="true"><g transform="translate(0.5,200.5)"><path class="background" aria-hidden="true" d="M0,0h0v0h0Z" pointer-events="none"/><g><g class="mark-rule role-axis-grid" pointer-events="none"><line transform="translate(0,0)" x2="0" y2="-200" stroke="#ddd" stroke-width="1" opacity="1"/><line transform="translate(33,0)" x2="0" y2="-200" stroke="#ddd" stroke-width="1" opacity="1"/><line transform="translate(67,0)" x2="0" y2="-200" stroke="#ddd" stroke-width="1" opacity="1"/><line transform="translate(100,0)" x2="0" y2="-200" stroke="#ddd" stroke-width="1" opacity="1"/><line transform="translate(133,0)" x2="0" y2="-200" stroke="#ddd" stroke-width="1" opacity="1"/><line transform="translate(167,0)" x2="0" y2="-200" stroke="#ddd" stroke-width="1" opacity="1"/><line transform="translate(200,0)" x2="0" y2="-200" stroke="#ddd" stroke-width="1" opacity="1"/><line transform="translate(233,0)" x2="0" y2="-200" stroke="#ddd" stroke-width="1" opacity="1"/><line transform="translate(267,0)" x2="0" y2="-200" stroke="#ddd" stroke-width="1" opacity="1"/><line transform="translate(300,0)" x2="0" y2="-200" stroke="#ddd" stroke-width="1" opacity="1"/><line transform="translate(333,0)" x2="0" y2="-200" stroke="#ddd" stroke-width="1" opacity="1"/><line transform="translate(367,0)" x2="0" y2="-200" stroke="#ddd" stroke-width="1" opacity="1"/><line transform="translate(400,0)" x2="0" y2="-200" stroke="#ddd" stroke-width="1" opacity="1"/><line transform="translate(433,0)" x2="0" y2="-200" stroke="#ddd" stroke-width="1" opacity="1"/><line transform="translate(467,0)" x2="0" y2="-200" stroke="#ddd" stroke-width="1" opacity="1"/><line transform="translate(500,0)" x2="0" y2="-200" stroke="#ddd" stroke-width="1" opacity="1"/><line transform="translate(533,0)" x2="0" y2="-200" stroke="#ddd" stroke-width="1" opacity="1"/><line transform="translate(567,0)" x2="0" y2="-200" stroke="#ddd" stroke-width="1" opacity="1"/><line transform="translate(600,0)" x2="0" y2="-200" stroke="#ddd" stroke-width="1" opacity="1"/></g></g><path class="foreground" aria-hidden="true" d="" pointer-events="none" display="none"/></g></g><g class="mark-group role-axis" role="graphics-symbol" aria-roledescription="axis" aria-label="X-axis titled 'Time (s)' for a linear scale with values from 0.000 to 0.009"><g transform="translate(0.5,200.5)"><path class="background" aria-hidden="true" d="M0,0h0v0h0Z" pointer-events="none"/><g><g class="mark-rule role-axis-tick" pointer-events="none"><line transform="translate(0,0)" x2="0" y2="5" stroke="#888" stroke-width="1" opacity="1"/><line transform="translate(33,0)" x2="0" y2="5" stroke="#888" stroke-width="1" opacity="1"/><line transform="translate(67,0)" x2="0" y2="5" stroke="#888" stroke-width="1" opacity="1"/><line transform="translate(100,0)" x2="0" y2="5" stroke="#888" stroke-width="1" opacity="1"/><line transform="translate(133,0)" x2="0" y2="5" stroke="#888" stroke-width="1" opacity="1"/><line transform="translate(167,0)" x2="0" y2="5" stroke="#888" stroke-width="1" opacity="1"/><line transform="translate(200,0)" x2="0" y2="5" stroke="#888" stroke-width="1" opacity="1"/><line transform="translate(233,0)" x2="0" y2="5" stroke="#888" stroke-width="1" opacity="1"/><line transform="translate(267,0)" x2="0" y2="5" stroke="#888" stroke-width="1" opacity="1"/><line transform="translate(300,0)" x2="0" y2="5" stroke="#888" stroke-width="1" opacity="1"/><line transform="translate(333,0)" x2="0" y2="5" stroke="#888" stroke-width="1" opacity="1"/><line transform="translate(367,0)" x2="0" y2="5" stroke="#888" stroke-width="1" opacity="1"/><line transform="translate(400,0)" x2="0" y2="5" stroke="#888" stroke-width="1" opacity="1"/><line transform="translate(433,0)" x2="0" y2="5" stroke="#888" stroke-width="1" opacity="1"/><line transform="translate(467,0)" x2="0" y2="5" stroke="#888" stroke-width="1" opacity="1"/><line transform="translate(500,0)" x2="0" y2="5" stroke="#888" stroke-width="1" opacity="1"/><line transform="translate(533,0)" x2="0" y2="5" stroke="#888" stroke-width="1" opacity="1"/><line transform="translate(567,0)" x2="0" y2="5" stroke="#888" stroke-width="1" opacity="1"/><line transform="translate(600,0)" x2="0" y2="5" stroke="#888" stroke-width="1" opacity="1"/></g><g class="mark-text role-axis-label" pointer-events="none"><text text-anchor="start" transform="translate(0,15)" font-family="sans-serif" font-size="10px" fill="#000" opacity="1">0.0000</text><text text-anchor="middle" transform="translate(33.333333333333336,15)" font-family="sans-serif" font-size="10px" fill="#000" opacity="0">0.0005</text><text text-anchor="middle" transform="translate(66.66666666666667,15)" font-family="sans-serif" font-size="10px" fill="#000" opacity="1">0.0010</text><text text-anchor="middle" transform="translate(100.00000000000001,15)" font-family="sans-serif" font-size="10px" fill="#000" opacity="0">0.0015</text><text text-anchor="middle" transform="translate(133.33333333333334,15)" font-family="sans-serif" font-size="10px" fill="#000" opacity="1">0.0020</text><text text-anchor="middle" transform="translate(166.66666666666669,15)" font-family="sans-serif" font-size="10px" fill="#000" opacity="0">0.0025</text><text text-anchor="middle" transform="translate(200.00000000000003,15)" font-family="sans-serif" font-size="10px" fill="#000" opacity="1">0.0030</text><text text-anchor="middle" transform="translate(233.33333333333337,15)" font-family="sans-serif" font-size="10px" fill="#000" opacity="0">0.0035</text><text text-anchor="middle" transform="translate(266.6666666666667,15)" font-family="sans-serif" font-size="10px" fill="#000" opacity="1">0.0040</text><text text-anchor="middle" transform="translate(300,15)" font-family="sans-serif" font-size="10px" fill="#000" opacity="0">0.0045</text><text text-anchor="middle" transform="translate(333.33333333333337,15)" font-family="sans-serif" font-size="10px" fill="#000" opacity="1">0.0050</text><text text-anchor="middle" transform="translate(366.6666666666667,15)" font-family="sans-serif" font-size="10px" fill="#000" opacity="0">0.0055</text><text text-anchor="middle" transform="translate(400.00000000000006,15)" font-family="sans-serif" font-size="10px" fill="#000" opacity="1">0.0060</text><text text-anchor="middle" transform="translate(433.3333333333333,15)" font-family="sans-serif" font-size="10px" fill="#000" opacity="0">0.0065</text><text text-anchor="middle" transform="translate(466.66666666666674,15)" font-family="sans-serif" font-size="10px" fill="#000" opacity="1">0.0070</text><text text-anchor="middle" transform="translate(500,15)" font-family="sans-serif" font-size="10px" fill="#000" opacity="0">0.0075</text><text text-anchor="middle" transform="translate(533.3333333333334,15)" font-family="sans-serif" font-size="10px" fill="#000" opacity="1">0.0080</text><text text-anchor="middle" transform="translate(566.6666666666667,15)" font-family="sans-serif" font-size="10px" fill="#000" opacity="0">0.0085</text><text text-anchor="end" transform="translate(600,15)" font-family="sans-serif" font-size="10px" fill="#000" opacity="1">0.0090</text></g><g class="mark-rule role-axis-domain" pointer-events="none"><line transform="translate(0,0)" x2="600" y2="0" stroke="#888" stroke-width="1" opacity="1"/></g><g class="mark-text role-axis-title" pointer-events="none"><text text-anchor="middle" transform="translate(300,30)" font-family="sans-serif" font-size="11px" font-weight="bold" fill="#000" opacity="1">Time (s)</text></g></g><path class="foreground" aria-hidden="true" d="" pointer-events="none" display="none"/></g></g><g class="mark-group role-axis" role="graphics-symbol" aria-roledescription="axis" aria-label="Y-axis titled 'Compilation Type' for a discrete scale with 5 values: Clang -O0, Clang -O3, Optimized, Phi, Stack"><g transform="translate(0.5,0.5)"><path class="background" aria-hidden="true" d="M0,0h0v0h0Z" pointer-events="none"/><g><g class="mark-rule role-axis-tick" pointer-events="none"><line transform="translate(0,20)" x2="-5" y2="0" stroke="#888" stroke-width="1" opacity="1"/><line transform="translate(0,60)" x2="-5" y2="0" stroke="#888" stroke-width="1" opacity="1"/><line transform="translate(0,100)" x2="-5" y2="0" stroke="#888" stroke-width="1" opacity="1"/><line transform="translate(0,140)" x2="-5" y2="0" stroke="#888" stroke-width="1" opacity="1"/><line transform="translate(0,180)" x2="-5" y2="0" stroke="#888" stroke-width="1" opacity="1"/></g><g class="mark-text role-axis-label" pointer-events="none"><text text-anchor="end" transform="translate(-7,22.5)" font-family="sans-serif" font-size="10px" fill="#000" opacity="1">Clang -O0</text><text text-anchor="end" transform="translate(-7,62.5)" font-family="sans-serif" font-size="10px" fill="#000" opacity="1">Clang -O3</text><text text-anchor="end" transform="translate(-7,102.5)" font-family="sans-serif" font-size="10px" fill="#000" opacity="1">Optimized</text><text text-anchor="end" transform="translate(-7,142.5)" font-family="sans-serif" font-size="10px" fill="#000" opacity="1">Phi</text><text text-anchor="end" transform="translate(-7,182.5)" font-family="sans-serif" font-size="10px" fill="#000" opacity="1">Stack</text></g><g class="mark-rule role-axis-domain" pointer-events="none"><line transform="translate(0,0)" x2="0" y2="200" stroke="#888" stroke-width="1" opacity="1"/></g><g class="mark-text role-axis-title" pointer-events="none"><text text-anchor="middle" transform="translate(-56.576171875,100) rotate(-90) translate(0,-2)" font-family="sans-serif" font-size="11px" font-weight="bold" fill="#000" opacity="1">Compilation Type</text></g></g><path class="foreground" aria-hidden="true" d="" pointer-events="none" display="none"/></g></g><g class="mark-rule role-mark layer_0_marks" aria-hidden="true"><line transform="translate(50.449274666666675,20)" x2="12.593850000000003" y2="0" stroke="black"/><line transform="translate(53.055008,60)" x2="2.3409333333333535" y2="0" stroke="black"/><line transform="translate(54.99454133333333,180)" x2="4.614166666666691" y2="0" stroke="black"/><line transform="translate(63.69327466666667,140)" x2="4.985133333333351" y2="0" stroke="black"/><line transform="translate(56.64687466666668,100)" x2="8.155333333333324" y2="0" stroke="black"/></g><g class="mark-rule role-mark layer_1_marks" aria-hidden="true"><line transform="translate(67.12197466666669,20)" x2="339.0917666666668" y2="0" stroke="black"/><line transform="translate(62.25337466666668,60)" x2="228.51750000000004" y2="0" stroke="black"/><line transform="translate(98.139858,180)" x2="500.8878166666668" y2="0" stroke="black"/><line transform="translate(81.24972466666667,140)" x2="242.8800833333333" y2="0" stroke="black"/><line transform="translate(69.54582466666668,100)" x2="302.2096500000001" y2="0" stroke="black"/></g><g class="mark-rect role-mark layer_2_marks" role="graphics-object" aria-roledescription="rect mark container"><path aria-label="Time (s): 0.00094564687; Compilation Type: Clang -O0; upper_box_Time (s): 0.00100682962; Max of Time (s): 0.00609320612; Q3 of Time (s): 0.00100682962; Median of Time (s): 0.00096844612; Q1 of Time (s): 0.00094564687; Min of Time (s): 0.00075673912" role="graphics-symbol" aria-roledescription="box" d="M63.04312466666668,13h4.07885000000001v14h-4.07885000000001Z" fill="#1f77b4"/><path aria-label="Time (s): 0.00083093912; Compilation Type: Clang -O3; upper_box_Time (s): 0.00093380062; Max of Time (s): 0.00436156312; Q3 of Time (s): 0.00093380062; Median of Time (s): 0.00086524312; Q1 of Time (s): 0.00083093912; Min of Time (s): 0.00079582512" role="graphics-symbol" aria-roledescription="box" d="M55.395941333333354,53h6.857433333333326v14h-6.857433333333326Z" fill="#ff7f0e"/><path aria-label="Time (s): 0.00089413062; Compilation Type: Stack; upper_box_Time (s): 0.00147209787; Max of Time (s): 0.00898541512; Q3 of Time (s): 0.00147209787; Median of Time (s): 0.00110814962; Q1 of Time (s): 0.00089413062; Min of Time (s): 0.00082491812" role="graphics-symbol" aria-roledescription="box" d="M59.60870800000002,173h38.53114999999998v14h-38.53114999999998Z" fill="#9467bd"/><path aria-label="Time (s): 0.00103017612; Compilation Type: Phi; upper_box_Time (s): 0.00121874587; Max of Time (s): 0.00486194712; Q3 of Time (s): 0.00121874587; Median of Time (s): 0.00112006962; Q1 of Time (s): 0.00103017612; Min of Time (s): 0.00095539912" role="graphics-symbol" aria-roledescription="box" d="M68.67840800000002,133h12.571316666666647v14h-12.571316666666647Z" fill="#d62728"/><path aria-label="Time (s): 0.00097203312; Compilation Type: Optimized; upper_box_Time (s): 0.00104318737; Max of Time (s): 0.00557633212; Q3 of Time (s): 0.00104318737; Median of Time (s): 0.00101401512; Q1 of Time (s): 0.00097203312; Min of Time (s): 0.00084970312" role="graphics-symbol" aria-roledescription="box" d="M64.80220800000001,93h4.743616666666668v14h-4.743616666666668Z" fill="#2ca02c"/></g><g class="mark-rect role-mark layer_3_marks" aria-hidden="true"><path d="M64.06307466666668,13h1v14h-1Z" fill="white" opacity="0.7"/><path d="M57.18287466666668,53h1v14h-1Z" fill="white" opacity="0.7"/><path d="M73.37664133333335,173h1v14h-1Z" fill="white" opacity="0.7"/><path d="M74.17130799999998,133h1v14h-1Z" fill="white" opacity="0.7"/><path d="M67.10100800000004,93h1v14h-1Z" fill="white" opacity="0.7"/></g></g><path class="foreground" aria-hidden="true" d="" display="none"/></g></g></g></svg>