<svg xmlns="http://www.w3.org/2000/svg" xmlns:xlink="http://www.w3.org/1999/xlink" version="1.1" class="marks" width="679" height="242" viewBox="0 0 679 242"><rect width="679" height="242" fill="white"/><g fill="none" stroke-miterlimit="10" transform="translate(73,5)"><g class="mark-group role-frame root" role="graphics-object" aria-roledescription="group mark container"><g transform="translate(0,0)"><path class="background" aria-hidden="true" d="M0.5,0.5h600v200h-600Z" stroke="#ddd"/><g><g class="mark-group role-axis" aria-hidden="true"><g transform="translate(0.5,200.5)"><path class="background" aria-hidden="true" d="M0,0h0v0h0Z" pointer-events="none"/><g><g class="mark-rule role-axis-grid" pointer-events="none"><line transform="translate(0,0)" x2="0" y2="-200" stroke="#ddd" stroke-width="1" opacity="1"/><line transform="translate(43,0)" x2="0" y2="-200" stroke="#ddd" stroke-width="1" opacity="1"/><line transform="translate(86,0)" x2="0" y2="-200" stroke="#ddd" stroke-width="1" opacity="1"/><line transform="translate(129,0)" x2="0" y2="-200" stroke="#ddd" stroke-width="1" opacity="1"/><line transform="translate(171,0)" x2="0" y2="-200" stroke="#ddd" stroke-width="1" opacity="1"/><line transform="translate(214,0)" x2="0" y2="-200" stroke="#ddd" stroke-width="1" opacity="1"/><line transform="translate(257,0)" x2="0" y2="-200" stroke="#ddd" stroke-width="1" opacity="1"/><line transform="translate(300,0)" x2="0" y2="-200" stroke="#ddd" stroke-width="1" opacity="1"/><line transform="translate(343,0)" x2="0" y2="-200" stroke="#ddd" stroke-width="1" opacity="1"/><line transform="translate(386,0)" x2="0" y2="-200" stroke="#ddd" stroke-width="1" opacity="1"/><line transform="translate(429,0)" x2="0" y2="-200" stroke="#ddd" stroke-width="1" opacity="1"/><line transform="translate(471,0)" x2="0" y2="-200" stroke="#ddd" stroke-width="1" opacity="1"/><line transform="translate(514,0)" x2="0" y2="-200" stroke="#ddd" stroke-width="1" opacity="1"/><line transform="translate(557,0)" x2="0" y2="-200" stroke="#ddd" stroke-width="1" opacity="1"/><line transform="translate(600,0)" x2="0" y2="-200" stroke="#ddd" stroke-width="1" opacity="1"/></g></g><path class="foreground" aria-hidden="true" d="" pointer-events="none" display="none"/></g></g><g class="mark-group role-axis" role="graphics-symbol" aria-roledescription="axis" aria-label="X-axis titled 'Time (s)' for a linear scale with values from 0.11 to 0.25"><g transform="translate(0.5,200.5)"><path class="background" aria-hidden="true" d="M0,0h0v0h0Z" pointer-events="none"/><g><g class="mark-rule role-axis-tick" pointer-events="none"><line transform="translate(0,0)" x2="0" y2="5" stroke="#888" stroke-width="1" opacity="1"/><line transform="translate(43,0)" x2="0" y2="5" stroke="#888" stroke-width="1" opacity="1"/><line transform="translate(86,0)" x2="0" y2="5" stroke="#888" stroke-width="1" opacity="1"/><line transform="translate(129,0)" x2="0" y2="5" stroke="#888" stroke-width="1" opacity="1"/><line transform="translate(171,0)" x2="0" y2="5" stroke="#888" stroke-width="1" opacity="1"/><line transform="translate(214,0)" x2="0" y2="5" stroke="#888" stroke-width="1" opacity="1"/><line transform="translate(257,0)" x2="0" y2="5" stroke="#888" stroke-width="1" opacity="1"/><line transform="translate(300,0)" x2="0" y2="5" stroke="#888" stroke-width="1" opacity="1"/><line transform="translate(343,0)" x2="0" y2="5" stroke="#888" stroke-width="1" opacity="1"/><line transform="translate(386,0)" x2="0" y2="5" stroke="#888" stroke-width="1" opacity="1"/><line transform="translate(429,0)" x2="0" y2="5" stroke="#888" stroke-width="1" opacity="1"/><line transform="translate(471,0)" x2="0" y2="5" stroke="#888" stroke-width="1" opacity="1"/><line transform="translate(514,0)" x2="0" y2="5" stroke="#888" stroke-width="1" opacity="1"/><line transform="translate(557,0)" x2="0" y2="5" stroke="#888" stroke-width="1" opacity="1"/><line transform="translate(600,0)" x2="0" y2="5" stroke="#888" stroke-width="1" opacity="1"/></g><g class="mark-text role-axis-label" pointer-events="none"><text text-anchor="start" transform="translate(0,15)" font-family="sans-serif" font-size="10px" fill="#000" opacity="1">0.11</text><text text-anchor="middle" transform="translate(42.85714285714283,15)" font-family="sans-serif" font-size="10px" fill="#000" opacity="1">0.12</text><text text-anchor="middle" transform="translate(85.71428571428572,15)" font-family="sans-serif" font-size="10px" fill="#000" opacity="1">0.13</text><text text-anchor="middle" transform="translate(128.5714285714286,15)" font-family="sans-serif" font-size="10px" fill="#000" opacity="1">0.14</text><text text-anchor="middle" transform="translate(171.4285714285714,15)" font-family="sans-serif" font-size="10px" fill="#000" opacity="1">0.15</text><text text-anchor="middle" transform="translate(214.28571428571428,15)" font-family="sans-serif" font-size="10px" fill="#000" opacity="1">0.16</text><text text-anchor="middle" transform="translate(257.14285714285717,15)" font-family="sans-serif" font-size="10px" fill="#000" opacity="1">0.17</text><text text-anchor="middle" transform="translate(299.99999999999994,15)" font-family="sans-serif" font-size="10px" fill="#000" opacity="1">0.18</text><text text-anchor="middle" transform="translate(342.85714285714283,15)" font-family="sans-serif" font-size="10px" fill="#000" opacity="1">0.19</text><text text-anchor="middle" transform="translate(385.7142857142857,15)" font-family="sans-serif" font-size="10px" fill="#000" opacity="1">0.20</text><text text-anchor="middle" transform="translate(428.5714285714285,15)" font-family="sans-serif" font-size="10px" fill="#000" opacity="1">0.21</text><text text-anchor="middle" transform="translate(471.42857142857144,15)" font-family="sans-serif" font-size="10px" fill="#000" opacity="1">0.22</text><text text-anchor="middle" transform="translate(514.2857142857142,15)" font-family="sans-serif" font-size="10px" fill="#000" opacity="1">0.23</text><text text-anchor="middle" transform="translate(557.1428571428571,15)" font-family="sans-serif" font-size="10px" fill="#000" opacity="1">0.24</text><text text-anchor="end" transform="translate(600,15)" font-family="sans-serif" font-size="10px" fill="#000" opacity="1">0.25</text></g><g class="mark-rule role-axis-domain" pointer-events="none"><line transform="translate(0,0)" x2="600" y2="0" stroke="#888" stroke-width="1" opacity="1"/></g><g class="mark-text role-axis-title" pointer-events="none"><text text-anchor="middle" transform="translate(300,30)" font-family="sans-serif" font-size="11px" font-weight="bold" fill="#000" opacity="1">Time (s)</text></g></g><path class="foreground" aria-hidden="true" d="" pointer-events="none" display="none"/></g></g><g class="mark-group role-axis" role="graphics-symbol" aria-roledescription="axis" aria-label="Y-axis titled 'Compilation Type' for a discrete scale with 5 values: Clang -O0, Clang -O3, Optimized, Phi, Stack"><g transform="translate(0.5,0.5)"><path class="background" aria-hidden="true" d="M0,0h0v0h0Z" pointer-events="none"/><g><g class="mark-rule role-axis-tick" pointer-events="none"><line transform="translate(0,20)" x2="-5" y2="0" stroke="#888" stroke-width="1" opacity="1"/><line transform="translate(0,60)" x2="-5" y2="0" stroke="#888" stroke-width="1" opacity="1"/><line transform="translate(0,100)" x2="-5" y2="0" stroke="#888" stroke-width="1" opacity="1"/><line transform="translate(0,140)" x2="-5" y2="0" stroke="#888" stroke-width="1" opacity="1"/><line transform="translate(0,180)" x2="-5" y2="0" stroke="#888" stroke-width="1" opacity="1"/></g><g class="mark-text role-axis-label" pointer-events="none"><text text-anchor="end" transform="translate(-7,22.5)" font-family="sans-serif" font-size="10px" fill="#000" opacity="1">Clang -O0</text><text text-anchor="end" transform="translate(-7,62.5)" font-family="sans-serif" font-size="10px" fill="#000" opacity="1">Clang -O3</text><text text-anchor="end" transform="translate(-7,102.5)" font-family="sans-serif" font-size="10px" fill="#000" opacity="1">Optimized</text><text text-anchor="end" transform="translate(-7,142.5)" font-family="sans-serif" font-size="10px" fill="#000" opacity="1">Phi</text><text text-anchor="end" transform="translate(-7,182.5)" font-family="sans-serif" font-size="10px" fill="#000" opacity="1">Stack</text></g><g class="mark-rule role-axis-domain" pointer-events="none"><line transform="translate(0,0)" x2="0" y2="200" stroke="#888" stroke-width="1" opacity="1"/></g><g class="mark-text role-axis-title" pointer-events="none"><text text-anchor="middle" transform="translate(-56.576171875,100) rotate(-90) translate(0,-2)" font-family="sans-serif" font-size="11px" font-weight="bold" fill="#000" opacity="1">Compilation Type</text></g></g><path class="foreground" aria-hidden="true" d="" pointer-events="none" display="none"/></g></g><g class="mark-rule role-mark layer_0_marks" aria-hidden="true"><line transform="translate(492.07542488571437,20)" x2="18.09813857142848" y2="0" stroke="black"/><line transform="translate(4.874657742857192,60)" x2="27.581848928571443" y2="0" stroke="black"/><line transform="translate(82.34243202857151,180)" x2="9.89295750000008" y2="0" stroke="black"/><line transform="translate(103.97006631428572,140)" x2="7.913013214285797" y2="0" stroke="black"/><line transform="translate(71.06549631428575,100)" x2="14.925358928571498" y2="0" stroke="black"/></g><g class="mark-rule role-mark layer_1_marks" aria-hidden="true"><line transform="translate(538.4969909571429,20)" x2="29.37028821428578" y2="0" stroke="black"/><line transform="translate(48.76190524285718,60)" x2="11.291602500000025" y2="0" stroke="black"/><line transform="translate(134.4537284571428,180)" x2="49.22749500000006" y2="0" stroke="black"/><line transform="translate(165.03998845714293,140)" x2="97.1692435714285" y2="0" stroke="black"/><line transform="translate(120.85759345714285,100)" x2="128.75285142857143" y2="0" stroke="black"/></g><g class="mark-rect role-mark layer_2_marks" role="graphics-object" aria-roledescription="rect mark container"><path aria-label="Time (s): 0.22904049814; Compilation Type: Clang -O0; upper_box_Time (s): 0.23564929789; Max of Time (s): 0.24250236514; Q3 of Time (s): 0.23564929789; Median of Time (s): 0.23327255664; Q1 of Time (s): 0.22904049814; Min of Time (s): 0.22481759914" role="graphics-symbol" aria-roledescription="box" d="M510.17356345714285,13h28.323427500000037v14h-28.323427500000037Z" fill="#1f77b4"/><path aria-label="Time (s): 0.11757318489; Compilation Type: Clang -O3; upper_box_Time (s): 0.12137777789; Max of Time (s): 0.12401248514; Q3 of Time (s): 0.12137777789; Median of Time (s): 0.11947050464; Q1 of Time (s): 0.11757318489; Min of Time (s): 0.11113742014" role="graphics-symbol" aria-roledescription="box" d="M32.456506671428635,53h16.305398571428547v14h-16.305398571428547Z" fill="#ff7f0e"/><path aria-label="Time (s): 0.13152159089; Compilation Type: Stack; upper_box_Time (s): 0.14137253664; Max of Time (s): 0.15285895214; Q3 of Time (s): 0.14137253664; Median of Time (s): 0.13592855364; Q1 of Time (s): 0.13152159089; Min of Time (s): 0.12921323414" role="graphics-symbol" aria-roledescription="box" d="M92.23538952857159,173h42.218338928571214v14h-42.218338928571214Z" fill="#9467bd"/><path aria-label="Time (s): 0.13610605189; Compilation Type: Phi; upper_box_Time (s): 0.14850933064; Max of Time (s): 0.17118215414; Q3 of Time (s): 0.14850933064; Median of Time (s): 0.14077544564; Q1 of Time (s): 0.13610605189; Min of Time (s): 0.13425968214" role="graphics-symbol" aria-roledescription="box" d="M111.88307952857151,133h53.15690892857141v14h-53.15690892857141Z" fill="#d62728"/><path aria-label="Time (s): 0.13006453289; Compilation Type: Optimized; upper_box_Time (s): 0.13820010514; Max of Time (s): 0.16824243714; Q3 of Time (s): 0.13820010514; Median of Time (s): 0.13480186864; Q1 of Time (s): 0.13006453289; Min of Time (s): 0.12658194914" role="graphics-symbol" aria-roledescription="box" d="M85.99085524285725,93h34.866738214285604v14h-34.866738214285604Z" fill="#2ca02c"/></g><g class="mark-rect role-mark layer_3_marks" aria-hidden="true"><path d="M527.8109570285715,13h1v14h-1Z" fill="white" opacity="0.7"/><path d="M40.087877028571434,53h1v14h-1Z" fill="white" opacity="0.7"/><path d="M110.62237274285715,173h1v14h-1Z" fill="white" opacity="0.7"/><path d="M131.3947670285714,133h1v14h-1Z" fill="white" opacity="0.7"/><path d="M105.7937227428572,93h1v14h-1Z" fill="white" opacity="0.7"/></g></g><path class="foreground" aria-hidden="true" d="" display="none"/></g></g></g></svg>