<svg xmlns="http://www.w3.org/2000/svg" xmlns:xlink="http://www.w3.org/1999/xlink" version="1.1" class="marks" width="679" height="242" viewBox="0 0 679 242"><rect width="679" height="242" fill="white"/><g fill="none" stroke-miterlimit="10" transform="translate(73,5)"><g class="mark-group role-frame root" role="graphics-object" aria-roledescription="group mark container"><g transform="translate(0,0)"><path class="background" aria-hidden="true" d="M0.5,0.5h600v200h-600Z" stroke="#ddd"/><g><g class="mark-group role-axis" aria-hidden="true"><g transform="translate(0.5,200.5)"><path class="background" aria-hidden="true" d="M0,0h0v0h0Z" pointer-events="none"/><g><g class="mark-rule role-axis-grid" pointer-events="none"><line transform="translate(0,0)" x2="0" y2="-200" stroke="#ddd" stroke-width="1" opacity="1"/><line transform="translate(33,0)" x2="0" y2="-200" stroke="#ddd" stroke-width="1" opacity="1"/><line transform="translate(67,0)" x2="0" y2="-200" stroke="#ddd" stroke-width="1" opacity="1"/><line transform="translate(100,0)" x2="0" y2="-200" stroke="#ddd" stroke-width="1" opacity="1"/><line transform="translate(133,0)" x2="0" y2="-200" stroke="#ddd" stroke-width="1" opacity="1"/><line transform="translate(167,0)" x2="0" y2="-200" stroke="#ddd" stroke-width="1" opacity="1"/><line transform="translate(200,0)" x2="0" y2="-200" stroke="#ddd" stroke-width="1" opacity="1"/><line transform="translate(233,0)" x2="0" y2="-200" stroke="#ddd" stroke-width="1" opacity="1"/><line transform="translate(267,0)" x2="0" y2="-200" stroke="#ddd" stroke-width="1" opacity="1"/><line transform="translate(300,0)" x2="0" y2="-200" stroke="#ddd" stroke-width="1" opacity="1"/><line transform="translate(333,0)" x2="0" y2="-200" stroke="#ddd" stroke-width="1" opacity="1"/><line transform="translate(367,0)" x2="0" y2="-200" stroke="#ddd" stroke-width="1" opacity="1"/><line transform="translate(400,0)" x2="0" y2="-200" stroke="#ddd" stroke-width="1" opacity="1"/><line transform="translate(433,0)" x2="0" y2="-200" stroke="#ddd" stroke-width="1" opacity="1"/><line transform="translate(467,0)" x2="0" y2="-200" stroke="#ddd" stroke-width="1" opacity="1"/><line transform="translate(500,0)" x2="0" y2="-200" stroke="#ddd" stroke-width="1" opacity="1"/><line transform="translate(533,0)" x2="0" y2="-200" stroke="#ddd" stroke-width="1" opacity="1"/><line transform="translate(567,0)" x2="0" y2="-200" stroke="#ddd" stroke-width="1" opacity="1"/><line transform="translate(600,0)" x2="0" y2="-200" stroke="#ddd" stroke-width="1" opacity="1"/></g></g><path class="foreground" aria-hidden="true" d="" pointer-events="none" display="none"/></g></g><g class="mark-group role-axis" role="graphics-symbol" aria-roledescription="axis" aria-label="X-axis titled 'Time (s)' for a linear scale with values from 0.6 to 2.4"><g transform="translate(0.5,200.5)"><path class="background" aria-hidden="true" d="M0,0h0v0h0Z" pointer-events="none"/><g><g class="mark-rule role-axis-tick" pointer-events="none"><line transform="translate(0,0)" x2="0" y2="5" stroke="#888" stroke-width="1" opacity="1"/><line transform="translate(33,0)" x2="0" y2="5" stroke="#888" stroke-width="1" opacity="1"/><line transform="translate(67,0)" x2="0" y2="5" stroke="#888" stroke-width="1" opacity="1"/><line transform="translate(100,0)" x2="0" y2="5" stroke="#888" stroke-width="1" opacity="1"/><line transform="translate(133,0)" x2="0" y2="5" stroke="#888" stroke-width="1" opacity="1"/><line transform="translate(167,0)" x2="0" y2="5" stroke="#888" stroke-width="1" opacity="1"/><line transform="translate(200,0)" x2="0" y2="5" stroke="#888" stroke-width="1" opacity="1"/><line transform="translate(233,0)" x2="0" y2="5" stroke="#888" stroke-width="1" opacity="1"/><line transform="translate(267,0)" x2="0" y2="5" stroke="#888" stroke-width="1" opacity="1"/><line transform="translate(300,0)" x2="0" y2="5" stroke="#888" stroke-width="1" opacity="1"/><line transform="translate(333,0)" x2="0" y2="5" stroke="#888" stroke-width="1" opacity="1"/><line transform="translate(367,0)" x2="0" y2="5" stroke="#888" stroke-width="1" opacity="1"/><line transform="translate(400,0)" x2="0" y2="5" stroke="#888" stroke-width="1" opacity="1"/><line transform="translate(433,0)" x2="0" y2="5" stroke="#888" stroke-width="1" opacity="1"/><line transform="translate(467,0)" x2="0" y2="5" stroke="#888" stroke-width="1" opacity="1"/><line transform="translate(500,0)" x2="0" y2="5" stroke="#888" stroke-width="1" opacity="1"/><line transform="translate(533,0)" x2="0" y2="5" stroke="#888" stroke-width="1" opacity="1"/><line transform="translate(567,0)" x2="0" y2="5" stroke="#888" stroke-width="1" opacity="1"/><line transform="translate(600,0)" x2="0" y2="5" stroke="#888" stroke-width="1" opacity="1"/></g><g class="mark-text role-axis-label" pointer-events="none"><text text-anchor="start" transform="translate(0,15)" font-family="sans-serif" font-size="10px" fill="#000" opacity="1">0.6</text><text text-anchor="middle" transform="translate(33.33333333333333,15)" font-family="sans-serif" font-size="10px" fill="#000" opacity="1">0.7</text><text text-anchor="middle" transform="translate(66.6666666666667,15)" font-family="sans-serif" font-size="10px" fill="#000" opacity="1">0.8</text><text text-anchor="middle" transform="translate(100.00000000000003,15)" font-family="sans-serif" font-size="10px" fill="#000" opacity="1">0.9</text><text text-anchor="middle" transform="translate(133.33333333333337,15)" font-family="sans-serif" font-size="10px" fill="#000" opacity="1">1.0</text><text text-anchor="middle" transform="translate(166.6666666666667,15)" font-family="sans-serif" font-size="10px" fill="#000" opacity="1">1.1</text><text text-anchor="middle" transform="translate(200.00000000000003,15)" font-family="sans-serif" font-size="10px" fill="#000" opacity="1">1.2</text><text text-anchor="middle" transform="translate(233.33333333333337,15)" font-family="sans-serif" font-size="10px" fill="#000" opacity="1">1.3</text><text text-anchor="middle" transform="translate(266.6666666666667,15)" font-family="sans-serif" font-size="10px" fill="#000" opacity="1">1.4</text><text text-anchor="middle" transform="translate(300.00000000000006,15)" font-family="sans-serif" font-size="10px" fill="#000" opacity="1">1.5</text><text text-anchor="middle" transform="translate(333.33333333333337,15)" font-family="sans-serif" font-size="10px" fill="#000" opacity="1">1.6</text><text text-anchor="middle" transform="translate(366.66666666666674,15)" font-family="sans-serif" font-size="10px" fill="#000" opacity="1">1.7</text><text text-anchor="middle" transform="translate(400.0000000000001,15)" font-family="sans-serif" font-size="10px" fill="#000" opacity="1">1.8</text><text text-anchor="middle" transform="translate(433.3333333333333,15)" font-family="sans-serif" font-size="10px" fill="#000" opacity="1">1.9</text><text text-anchor="middle" transform="translate(466.6666666666667,15)" font-family="sans-serif" font-size="10px" fill="#000" opacity="1">2.0</text><text text-anchor="middle" transform="translate(500,15)" font-family="sans-serif" font-size="10px" fill="#000" opacity="1">2.1</text><text text-anchor="middle" transform="translate(533.3333333333335,15)" font-family="sans-serif" font-size="10px" fill="#000" opacity="1">2.2</text><text text-anchor="middle" transform="translate(566.6666666666666,15)" font-family="sans-serif" font-size="10px" fill="#000" opacity="1">2.3</text><text text-anchor="end" transform="translate(600,15)" font-family="sans-serif" font-size="10px" fill="#000" opacity="1">2.4</text></g><g class="mark-rule role-axis-domain" pointer-events="none"><line transform="translate(0,0)" x2="600" y2="0" stroke="#888" stroke-width="1" opacity="1"/></g><g class="mark-text role-axis-title" pointer-events="none"><text text-anchor="middle" transform="translate(300,30)" font-family="sans-serif" font-size="11px" font-weight="bold" fill="#000" opacity="1">Time (s)</text></g></g><path class="foreground" aria-hidden="true" d="" pointer-events="none" display="none"/></g></g><g class="mark-group role-axis" role="graphics-symbol" aria-roledescription="axis" aria-label="Y-axis titled 'Compilation Type' for a discrete scale with 5 values: Clang -O0, Clang -O3, Optimized, Phi, Stack"><g transform="translate(0.5,0.5)"><path class="background" aria-hidden="true" d="M0,0h0v0h0Z" pointer-events="none"/><g><g class="mark-rule role-axis-tick" pointer-events="none"><line transform="translate(0,20)" x2="-5" y2="0" stroke="#888" stroke-width="1" opacity="1"/><line transform="translate(0,60)" x2="-5" y2="0" stroke="#888" stroke-width="1" opacity="1"/><line transform="translate(0,100)" x2="-5" y2="0" stroke="#888" stroke-width="1" opacity="1"/><line transform="translate(0,140)" x2="-5" y2="0" stroke="#888" stroke-width="1" opacity="1"/><line transform="translate(0,180)" x2="-5" y2="0" stroke="#888" stroke-width="1" opacity="1"/></g><g class="mark-text role-axis-label" pointer-events="none"><text text-anchor="end" transform="translate(-7,22.5)" font-family="sans-serif" font-size="10px" fill="#000" opacity="1">Clang -O0</text><text text-anchor="end" transform="translate(-7,62.5)" font-family="sans-serif" font-size="10px" fill="#000" opacity="1">Clang -O3</text><text text-anchor="end" transform="translate(-7,102.5)" font-family="sans-serif" font-size="10px" fill="#000" opacity="1">Optimized</text><text text-anchor="end" transform="translate(-7,142.5)" font-family="sans-serif" font-size="10px" fill="#000" opacity="1">Phi</text><text text-anchor="end" transform="translate(-7,182.5)" font-family="sans-serif" font-size="10px" fill="#000" opacity="1">Stack</text></g><g class="mark-rule role-axis-domain" pointer-events="none"><line transform="translate(0,0)" x2="0" y2="200" stroke="#888" stroke-width="1" opacity="1"/></g><g class="mark-text role-axis-title" pointer-events="none"><text text-anchor="middle" transform="translate(-56.576171875,100) rotate(-90) translate(0,-2)" font-family="sans-serif" font-size="11px" font-weight="bold" fill="#000" opacity="1">Compilation Type</text></g></g><path class="foreground" aria-hidden="true" d="" pointer-events="none" display="none"/></g></g><g class="mark-rule role-mark layer_0_marks" aria-hidden="true"><line transform="translate(511.2655066733333,20)" x2="9.955643083333428" y2="0" stroke="black"/><line transform="translate(57.01589034000003,60)" x2="3.0202502500000037" y2="0" stroke="black"/><line transform="translate(102.70589667333334,180)" x2="10.285885083333355" y2="0" stroke="black"/><line transform="translate(106.23272700666669,140)" x2="2.3058090833333154" y2="0" stroke="black"/><line transform="translate(91.91934834000001,100)" x2="3.2376147499999917" y2="0" stroke="black"/></g><g class="mark-rule role-mark layer_1_marks" aria-hidden="true"><line transform="translate(568.4991859233334,20)" x2="8.962495750000016" y2="0" stroke="black"/><line transform="translate(87.80806559000003,60)" x2="8.783188416666661" y2="0" stroke="black"/><line transform="translate(132.07523667333336,180)" x2="8.170742666666627" y2="0" stroke="black"/><line transform="translate(119.19068592333335,140)" x2="25.971243416666653" y2="0" stroke="black"/><line transform="translate(113.61826859000003,100)" x2="17.456283083333304" y2="0" stroke="black"/></g><g class="mark-rect role-mark layer_2_marks" role="graphics-object" aria-roledescription="rect mark container"><path aria-label="Time (s): 2.16366344927; Compilation Type: Clang -O0; upper_box_Time (s): 2.30549755777; Max of Time (s): 2.33238504502; Q3 of Time (s): 2.30549755777; Median of Time (s): 2.22946138052; Q1 of Time (s): 2.16366344927; Min of Time (s): 2.13379652002" role="graphics-symbol" aria-roledescription="box" d="M521.2211497566667,13h47.27803616666665v14h-47.27803616666665Z" fill="#1f77b4"/><path aria-label="Time (s): 0.78010842177; Compilation Type: Clang -O3; upper_box_Time (s): 0.86342419677; Max of Time (s): 0.88977376202; Q3 of Time (s): 0.86342419677; Median of Time (s): 0.81534124902; Q1 of Time (s): 0.78010842177; Min of Time (s): 0.77104767102" role="graphics-symbol" aria-roledescription="box" d="M60.03614059000003,53h27.771924999999996v14h-27.771924999999996Z" fill="#ff7f0e"/><path aria-label="Time (s): 0.93897534527; Compilation Type: Stack; upper_box_Time (s): 0.99622571002; Max of Time (s): 1.02073793802; Q3 of Time (s): 0.99622571002; Median of Time (s): 0.96718071652; Q1 of Time (s): 0.93897534527; Min of Time (s): 0.90811769002" role="graphics-symbol" aria-roledescription="box" d="M112.9917817566667,173h19.083454916666668v14h-19.083454916666668Z" fill="#9467bd"/><path aria-label="Time (s): 0.92561560827; Compilation Type: Phi; upper_box_Time (s): 0.95757205777; Max of Time (s): 1.03548578802; Q3 of Time (s): 0.95757205777; Median of Time (s): 0.93088579552; Q1 of Time (s): 0.92561560827; Min of Time (s): 0.91869818102" role="graphics-symbol" aria-roledescription="box" d="M108.53853609000001,133h10.65214983333334v14h-10.65214983333334Z" fill="#d62728"/><path aria-label="Time (s): 0.88547088927; Compilation Type: Optimized; upper_box_Time (s): 0.94085480577; Max of Time (s): 0.99322365502; Q3 of Time (s): 0.94085480577; Median of Time (s): 0.89465683602; Q1 of Time (s): 0.88547088927; Min of Time (s): 0.87575804502" role="graphics-symbol" aria-roledescription="box" d="M95.15696309,93h18.461305500000023v14h-18.461305500000023Z" fill="#2ca02c"/></g><g class="mark-rect role-mark layer_3_marks" aria-hidden="true"><path d="M542.6537935066667,13h1v14h-1Z" fill="white" opacity="0.7"/><path d="M71.28041634000003,53h1v14h-1Z" fill="white" opacity="0.7"/><path d="M121.89357217333335,173h1v14h-1Z" fill="white" opacity="0.7"/><path d="M109.79526517333336,133h1v14h-1Z" fill="white" opacity="0.7"/><path d="M97.71894534000002,93h1v14h-1Z" fill="white" opacity="0.7"/></g></g><path class="foreground" aria-hidden="true" d="" display="none"/></g></g></g></svg>