<svg xmlns="http://www.w3.org/2000/svg" xmlns:xlink="http://www.w3.org/1999/xlink" version="1.1" class="marks" width="679" height="242" viewBox="0 0 679 242"><rect width="679" height="242" fill="white"/><g fill="none" stroke-miterlimit="10" transform="translate(73,5)"><g class="mark-group role-frame root" role="graphics-object" aria-roledescription="group mark container"><g transform="translate(0,0)"><path class="background" aria-hidden="true" d="M0.5,0.5h600v200h-600Z" stroke="#ddd"/><g><g class="mark-group role-axis" aria-hidden="true"><g transform="translate(0.5,200.5)"><path class="background" aria-hidden="true" d="M0,0h0v0h0Z" pointer-events="none"/><g><g class="mark-rule role-axis-grid" pointer-events="none"><line transform="translate(0,0)" x2="0" y2="-200" stroke="#ddd" stroke-width="1" opacity="1"/><line transform="translate(46,0)" x2="0" y2="-200" stroke="#ddd" stroke-width="1" opacity="1"/><line transform="translate(92,0)" x2="0" y2="-200" stroke="#ddd" stroke-width="1" opacity="1"/><line transform="translate(138,0)" x2="0" y2="-200" stroke="#ddd" stroke-width="1" opacity="1"/><line transform="translate(185,0)" x2="0" y2="-200" stroke="#ddd" stroke-width="1" opacity="1"/><line transform="translate(231,0)" x2="0" y2="-200" stroke="#ddd" stroke-width="1" opacity="1"/><line transform="translate(277,0)" x2="0" y2="-200" stroke="#ddd" stroke-width="1" opacity="1"/><line transform="translate(323,0)" x2="0" y2="-200" stroke="#ddd" stroke-width="1" opacity="1"/><line transform="translate(369,0)" x2="0" y2="-200" stroke="#ddd" stroke-width="1" opacity="1"/><line transform="translate(415,0)" x2="0" y2="-200" stroke="#ddd" stroke-width="1" opacity="1"/><line transform="translate(462,0)" x2="0" y2="-200" stroke="#ddd" stroke-width="1" opacity="1"/><line transform="translate(508,0)" x2="0" y2="-200" stroke="#ddd" stroke-width="1" opacity="1"/><line transform="translate(554,0)" x2="0" y2="-200" stroke="#ddd" stroke-width="1" opacity="1"/><line transform="translate(600,0)" x2="0" y2="-200" stroke="#ddd" stroke-width="1" opacity="1"/></g></g><path class="foreground" aria-hidden="true" d="" pointer-events="none" display="none"/></g></g><g class="mark-group role-axis" role="graphics-symbol" aria-roledescription="axis" aria-label="X-axis titled 'Time (s)' for a linear scale with values from 0.003 to 0.016"><g transform="translate(0.5,200.5)"><path class="background" aria-hidden="true" d="M0,0h0v0h0Z" pointer-events="none"/><g><g class="mark-rule role-axis-tick" pointer-events="none"><line transform="translate(0,0)" x2="0" y2="5" stroke="#888" stroke-width="1" opacity="1"/><line transform="translate(46,0)" x2="0" y2="5" stroke="#888" stroke-width="1" opacity="1"/><line transform="translate(92,0)" x2="0" y2="5" stroke="#888" stroke-width="1" opacity="1"/><line transform="translate(138,0)" x2="0" y2="5" stroke="#888" stroke-width="1" opacity="1"/><line transform="translate(185,0)" x2="0" y2="5" stroke="#888" stroke-width="1" opacity="1"/><line transform="translate(231,0)" x2="0" y2="5" stroke="#888" stroke-width="1" opacity="1"/><line transform="translate(277,0)" x2="0" y2="5" stroke="#888" stroke-width="1" opacity="1"/><line transform="translate(323,0)" x2="0" y2="5" stroke="#888" stroke-width="1" opacity="1"/><line transform="translate(369,0)" x2="0" y2="5" stroke="#888" stroke-width="1" opacity="1"/><line transform="translate(415,0)" x2="0" y2="5" stroke="#888" stroke-width="1" opacity="1"/><line transform="translate(462,0)" x2="0" y2="5" stroke="#888" stroke-width="1" opacity="1"/><line transform="translate(508,0)" x2="0" y2="5" stroke="#888" stroke-width="1" opacity="1"/><line transform="translate(554,0)" x2="0" y2="5" stroke="#888" stroke-width="1" opacity="1"/><line transform="translate(600,0)" x2="0" y2="5" stroke="#888" stroke-width="1" opacity="1"/></g><g class="mark-text role-axis-label" pointer-events="none"><text text-anchor="start" transform="translate(0,15)" font-family="sans-serif" font-size="10px" fill="#000" opacity="1">0.003</text><text text-anchor="middle" transform="translate(46.153846153846146,15)" font-family="sans-serif" font-size="10px" fill="#000" opacity="1">0.004</text><text text-anchor="middle" transform="translate(92.30769230769229,15)" font-family="sans-serif" font-size="10px" fill="#000" opacity="1">0.005</text><text text-anchor="middle" transform="translate(138.46153846153845,15)" font-family="sans-serif" font-size="10px" fill="#000" opacity="1">0.006</text><text text-anchor="middle" transform="translate(184.61538461538458,15)" font-family="sans-serif" font-size="10px" fill="#000" opacity="1">0.007</text><text text-anchor="middle" transform="translate(230.76923076923075,15)" font-family="sans-serif" font-size="10px" fill="#000" opacity="1">0.008</text><text text-anchor="middle" transform="translate(276.92307692307685,15)" font-family="sans-serif" font-size="10px" fill="#000" opacity="1">0.009</text><text text-anchor="middle" transform="translate(323.07692307692304,15)" font-family="sans-serif" font-size="10px" fill="#000" opacity="1">0.010</text><text text-anchor="middle" transform="translate(369.23076923076917,15)" font-family="sans-serif" font-size="10px" fill="#000" opacity="1">0.011</text><text text-anchor="middle" transform="translate(415.38461538461536,15)" font-family="sans-serif" font-size="10px" fill="#000" opacity="1">0.012</text><text text-anchor="middle" transform="translate(461.53846153846143,15)" font-family="sans-serif" font-size="10px" fill="#000" opacity="1">0.013</text><text text-anchor="middle" transform="translate(507.6923076923076,15)" font-family="sans-serif" font-size="10px" fill="#000" opacity="1">0.014</text><text text-anchor="middle" transform="translate(553.8461538461538,15)" font-family="sans-serif" font-size="10px" fill="#000" opacity="1">0.015</text><text text-anchor="end" transform="translate(600,15)" font-family="sans-serif" font-size="10px" fill="#000" opacity="1">0.016</text></g><g class="mark-rule role-axis-domain" pointer-events="none"><line transform="translate(0,0)" x2="600" y2="0" stroke="#888" stroke-width="1" opacity="1"/></g><g class="mark-text role-axis-title" pointer-events="none"><text text-anchor="middle" transform="translate(300,30)" font-family="sans-serif" font-size="11px" font-weight="bold" fill="#000" opacity="1">Time (s)</text></g></g><path class="foreground" aria-hidden="true" d="" pointer-events="none" display="none"/></g></g><g class="mark-group role-axis" role="graphics-symbol" aria-roledescription="axis" aria-label="Y-axis titled 'Compilation Type' for a discrete scale with 5 values: Clang -O0, Clang -O3, Optimized, Phi, Stack"><g transform="translate(0.5,0.5)"><path class="background" aria-hidden="true" d="M0,0h0v0h0Z" pointer-events="none"/><g><g class="mark-rule role-axis-tick" pointer-events="none"><line transform="translate(0,20)" x2="-5" y2="0" stroke="#888" stroke-width="1" opacity="1"/><line transform="translate(0,60)" x2="-5" y2="0" stroke="#888" stroke-width="1" opacity="1"/><line transform="translate(0,100)" x2="-5" y2="0" stroke="#888" stroke-width="1" opacity="1"/><line transform="translate(0,140)" x2="-5" y2="0" stroke="#888" stroke-width="1" opacity="1"/><line transform="translate(0,180)" x2="-5" y2="0" stroke="#888" stroke-width="1" opacity="1"/></g><g class="mark-text role-axis-label" pointer-events="none"><text text-anchor="end" transform="translate(-7,22.5)" font-family="sans-serif" font-size="10px" fill="#000" opacity="1">Clang -O0</text><text text-anchor="end" transform="translate(-7,62.5)" font-family="sans-serif" font-size="10px" fill="#000" opacity="1">Clang -O3</text><text text-anchor="end" transform="translate(-7,102.5)" font-family="sans-serif" font-size="10px" fill="#000" opacity="1">Optimized</text><text text-anchor="end" transform="translate(-7,142.5)" font-family="sans-serif" font-size="10px" fill="#000" opacity="1">Phi</text><text text-anchor="end" transform="translate(-7,182.5)" font-family="sans-serif" font-size="10px" fill="#000" opacity="1">Stack</text></g><g class="mark-rule role-axis-domain" pointer-events="none"><line transform="translate(0,0)" x2="0" y2="200" stroke="#888" stroke-width="1" opacity="1"/></g><g class="mark-text role-axis-title" pointer-events="none"><text text-anchor="middle" transform="translate(-56.576171875,100) rotate(-90) translate(0,-2)" font-family="sans-serif" font-size="11px" font-weight="bold" fill="#000" opacity="1">Compilation Type</text></g></g><path class="foreground" aria-hidden="true" d="" pointer-events="none" display="none"/></g></g><g class="mark-rule role-mark layer_0_marks" aria-hidden="true"><line transform="translate(389.4268901538462,20)" x2="20.06751923076928" y2="0" stroke="black"/><line transform="translate(46.6664593846154,60)" x2="2.8685999999999865" y2="0" stroke="black"/><line transform="translate(21.723674769230765,180)" x2="3.9376730769230797" y2="0" stroke="black"/><line transform="translate(16.388059384615406,140)" x2="2.572073076923054" y2="0" stroke="black"/><line transform="translate(15.421736307692312,100)" x2="2.589207692307701" y2="0" stroke="black"/></g><g class="mark-rule role-mark layer_1_marks" aria-hidden="true"><line transform="translate(434.4454786153847,20)" x2="129.76007307692294" y2="0" stroke="black"/><line transform="translate(59.02517861538465,60)" x2="41.22488076923071" y2="0" stroke="black"/><line transform="translate(32.447913230769245,180)" x2="42.58063846153847" y2="0" stroke="black"/><line transform="translate(33.47678630769232,140)" x2="92.1317653846154" y2="0" stroke="black"/><line transform="translate(26.85721707692309,100)" x2="177.71133461538466" y2="0" stroke="black"/></g><g class="mark-rect role-mark layer_2_marks" role="graphics-object" aria-roledescription="rect mark container"><path aria-label="Time (s): 0.01187237887; Compilation Type: Clang -O0; upper_box_Time (s): 0.01241298537; Max of Time (s): 0.01522445362; Q3 of Time (s): 0.01241298537; Median of Time (s): 0.01219421812; Q1 of Time (s): 0.01187237887; Min of Time (s): 0.01143758262" role="graphics-symbol" aria-roledescription="box" d="M409.4944093846155,13h24.95106923076918v14h-24.95106923076918Z" fill="#1f77b4"/><path aria-label="Time (s): 0.00407325962; Compilation Type: Clang -O3; upper_box_Time (s): 0.00427887887; Max of Time (s): 0.00517208462; Q3 of Time (s): 0.00427887887; Median of Time (s): 0.00409455662; Q1 of Time (s): 0.00407325962; Min of Time (s): 0.00401110662" role="graphics-symbol" aria-roledescription="box" d="M49.53505938461539,53h9.49011923076926v14h-9.49011923076926Z" fill="#ff7f0e"/><path aria-label="Time (s): 0.00355599587; Compilation Type: Stack; upper_box_Time (s): 0.00370303812; Max of Time (s): 0.00462561862; Q3 of Time (s): 0.00370303812; Median of Time (s): 0.00357726712; Q1 of Time (s): 0.00355599587; Min of Time (s): 0.00347067962" role="graphics-symbol" aria-roledescription="box" d="M25.661347846153845,173h6.7865653846154v14h-6.7865653846154Z" fill="#9467bd"/><path aria-label="Time (s): 0.00341080287; Compilation Type: Phi; upper_box_Time (s): 0.00372533037; Max of Time (s): 0.00572151862; Q3 of Time (s): 0.00372533037; Median of Time (s): 0.00356406962; Q1 of Time (s): 0.00341080287; Min of Time (s): 0.00335507462" role="graphics-symbol" aria-roledescription="box" d="M18.96013246153846,133h14.516653846153861v14h-14.516653846153861Z" fill="#d62728"/><path aria-label="Time (s): 0.00339023712; Compilation Type: Optimized; upper_box_Time (s): 0.00358190637; Max of Time (s): 0.00743231862; Q3 of Time (s): 0.00358190637; Median of Time (s): 0.00352556812; Q1 of Time (s): 0.00339023712; Min of Time (s): 0.00333413762" role="graphics-symbol" aria-roledescription="box" d="M18.010944000000013,93h8.846273076923076v14h-8.846273076923076Z" fill="#2ca02c"/></g><g class="mark-rect role-mark layer_3_marks" aria-hidden="true"><path d="M423.8485286153846,13h1v14h-1Z" fill="white" opacity="0.7"/><path d="M50.01799784615385,53h1v14h-1Z" fill="white" opacity="0.7"/><path d="M26.143097846153854,173h1v14h-1Z" fill="white" opacity="0.7"/><path d="M25.53398246153846,133h1v14h-1Z" fill="white" opacity="0.7"/><path d="M23.756990153846157,93h1v14h-1Z" fill="white" opacity="0.7"/></g></g><path class="foreground" aria-hidden="true" d="" display="none"/></g></g></g></svg>