<svg xmlns="http://www.w3.org/2000/svg" xmlns:xlink="http://www.w3.org/1999/xlink" version="1.1" class="marks" width="679" height="242" viewBox="0 0 679 242"><rect width="679" height="242" fill="white"/><g fill="none" stroke-miterlimit="10" transform="translate(73,5)"><g class="mark-group role-frame root" role="graphics-object" aria-roledescription="group mark container"><g transform="translate(0,0)"><path class="background" aria-hidden="true" d="M0.5,0.5h600v200h-600Z" stroke="#ddd"/><g><g class="mark-group role-axis" aria-hidden="true"><g transform="translate(0.5,200.5)"><path class="background" aria-hidden="true" d="M0,0h0v0h0Z" pointer-events="none"/><g><g class="mark-rule role-axis-grid" pointer-events="none"><line transform="translate(0,0)" x2="0" y2="-200" stroke="#ddd" stroke-width="1" opacity="1"/><line transform="translate(38,0)" x2="0" y2="-200" stroke="#ddd" stroke-width="1" opacity="1"/><line transform="translate(75,0)" x2="0" y2="-200" stroke="#ddd" stroke-width="1" opacity="1"/><line transform="translate(113,0)" x2="0" y2="-200" stroke="#ddd" stroke-width="1" opacity="1"/><line transform="translate(150,0)" x2="0" y2="-200" stroke="#ddd" stroke-width="1" opacity="1"/><line transform="translate(188,0)" x2="0" y2="-200" stroke="#ddd" stroke-width="1" opacity="1"/><line transform="translate(225,0)" x2="0" y2="-200" stroke="#ddd" stroke-width="1" opacity="1"/><line transform="translate(263,0)" x2="0" y2="-200" stroke="#ddd" stroke-width="1" opacity="1"/><line transform="translate(300,0)" x2="0" y2="-200" stroke="#ddd" stroke-width="1" opacity="1"/><line transform="translate(338,0)" x2="0" y2="-200" stroke="#ddd" stroke-width="1" opacity="1"/><line transform="translate(375,0)" x2="0" y2="-200" stroke="#ddd" stroke-width="1" opacity="1"/><line transform="translate(413,0)" x2="0" y2="-200" stroke="#ddd" stroke-width="1" opacity="1"/><line transform="translate(450,0)" x2="0" y2="-200" stroke="#ddd" stroke-width="1" opacity="1"/><line transform="translate(488,0)" x2="0" y2="-200" stroke="#ddd" stroke-width="1" opacity="1"/><line transform="translate(525,0)" x2="0" y2="-200" stroke="#ddd" stroke-width="1" opacity="1"/><line transform="translate(563,0)" x2="0" y2="-200" stroke="#ddd" stroke-width="1" opacity="1"/><line transform="translate(600,0)" x2="0" y2="-200" stroke="#ddd" stroke-width="1" opacity="1"/></g></g><path class="foreground" aria-hidden="true" d="" pointer-events="none" display="none"/></g></g><g class="mark-group role-axis" role="graphics-symbol" aria-roledescription="axis" aria-label="X-axis titled 'Time (s)' for a linear scale with values from 0.06 to 0.22"><g transform="translate(0.5,200.5)"><path class="background" aria-hidden="true" d="M0,0h0v0h0Z" pointer-events="none"/><g><g class="mark-rule role-axis-tick" pointer-events="none"><line transform="translate(0,0)" x2="0" y2="5" stroke="#888" stroke-width="1" opacity="1"/><line transform="translate(38,0)" x2="0" y2="5" stroke="#888" stroke-width="1" opacity="1"/><line transform="translate(75,0)" x2="0" y2="5" stroke="#888" stroke-width="1" opacity="1"/><line transform="translate(113,0)" x2="0" y2="5" stroke="#888" stroke-width="1" opacity="1"/><line transform="translate(150,0)" x2="0" y2="5" stroke="#888" stroke-width="1" opacity="1"/><line transform="translate(188,0)" x2="0" y2="5" stroke="#888" stroke-width="1" opacity="1"/><line transform="translate(225,0)" x2="0" y2="5" stroke="#888" stroke-width="1" opacity="1"/><line transform="translate(263,0)" x2="0" y2="5" stroke="#888" stroke-width="1" opacity="1"/><line transform="translate(300,0)" x2="0" y2="5" stroke="#888" stroke-width="1" opacity="1"/><line transform="translate(338,0)" x2="0" y2="5" stroke="#888" stroke-width="1" opacity="1"/><line transform="translate(375,0)" x2="0" y2="5" stroke="#888" stroke-width="1" opacity="1"/><line transform="translate(413,0)" x2="0" y2="5" stroke="#888" stroke-width="1" opacity="1"/><line transform="translate(450,0)" x2="0" y2="5" stroke="#888" stroke-width="1" opacity="1"/><line transform="translate(488,0)" x2="0" y2="5" stroke="#888" stroke-width="1" opacity="1"/><line transform="translate(525,0)" x2="0" y2="5" stroke="#888" stroke-width="1" opacity="1"/><line transform="translate(563,0)" x2="0" y2="5" stroke="#888" stroke-width="1" opacity="1"/><line transform="translate(600,0)" x2="0" y2="5" stroke="#888" stroke-width="1" opacity="1"/></g><g class="mark-text role-axis-label" pointer-events="none"><text text-anchor="start" transform="translate(0,15)" font-family="sans-serif" font-size="10px" fill="#000" opacity="1">0.06</text><text text-anchor="middle" transform="translate(37.500000000000036,15)" font-family="sans-serif" font-size="10px" fill="#000" opacity="1">0.07</text><text text-anchor="middle" transform="translate(75.00000000000001,15)" font-family="sans-serif" font-size="10px" fill="#000" opacity="1">0.08</text><text text-anchor="middle" transform="translate(112.5,15)" font-family="sans-serif" font-size="10px" fill="#000" opacity="1">0.09</text><text text-anchor="middle" transform="translate(150.00000000000003,15)" font-family="sans-serif" font-size="10px" fill="#000" opacity="1">0.10</text><text text-anchor="middle" transform="translate(187.5,15)" font-family="sans-serif" font-size="10px" fill="#000" opacity="1">0.11</text><text text-anchor="middle" transform="translate(225,15)" font-family="sans-serif" font-size="10px" fill="#000" opacity="1">0.12</text><text text-anchor="middle" transform="translate(262.50000000000006,15)" font-family="sans-serif" font-size="10px" fill="#000" opacity="1">0.13</text><text text-anchor="middle" transform="translate(300.00000000000006,15)" font-family="sans-serif" font-size="10px" fill="#000" opacity="1">0.14</text><text text-anchor="middle" transform="translate(337.5,15)" font-family="sans-serif" font-size="10px" fill="#000" opacity="1">0.15</text><text text-anchor="middle" transform="translate(375,15)" font-family="sans-serif" font-size="10px" fill="#000" opacity="1">0.16</text><text text-anchor="middle" transform="translate(412.50000000000006,15)" font-family="sans-serif" font-size="10px" fill="#000" opacity="1">0.17</text><text text-anchor="middle" transform="translate(450,15)" font-family="sans-serif" font-size="10px" fill="#000" opacity="1">0.18</text><text text-anchor="middle" transform="translate(487.5,15)" font-family="sans-serif" font-size="10px" fill="#000" opacity="1">0.19</text><text text-anchor="middle" transform="translate(525.0000000000001,15)" font-family="sans-serif" font-size="10px" fill="#000" opacity="1">0.20</text><text text-anchor="middle" transform="translate(562.5,15)" font-family="sans-serif" font-size="10px" fill="#000" opacity="1">0.21</text><text text-anchor="end" transform="translate(600,15)" font-family="sans-serif" font-size="10px" fill="#000" opacity="1">0.22</text></g><g class="mark-rule role-axis-domain" pointer-events="none"><line transform="translate(0,0)" x2="600" y2="0" stroke="#888" stroke-width="1" opacity="1"/></g><g class="mark-text role-axis-title" pointer-events="none"><text text-anchor="middle" transform="translate(300,30)" font-family="sans-serif" font-size="11px" font-weight="bold" fill="#000" opacity="1">Time (s)</text></g></g><path class="foreground" aria-hidden="true" d="" pointer-events="none" display="none"/></g></g><g class="mark-group role-axis" role="graphics-symbol" aria-roledescription="axis" aria-label="Y-axis titled 'Compilation Type' for a discrete scale with 5 values: Clang -O0, Clang -O3, Optimized, Phi, Stack"><g transform="translate(0.5,0.5)"><path class="background" aria-hidden="true" d="M0,0h0v0h0Z" pointer-events="none"/><g><g class="mark-rule role-axis-tick" pointer-events="none"><line transform="translate(0,20)" x2="-5" y2="0" stroke="#888" stroke-width="1" opacity="1"/><line transform="translate(0,60)" x2="-5" y2="0" stroke="#888" stroke-width="1" opacity="1"/><line transform="translate(0,100)" x2="-5" y2="0" stroke="#888" stroke-width="1" opacity="1"/><line transform="translate(0,140)" x2="-5" y2="0" stroke="#888" stroke-width="1" opacity="1"/><line transform="translate(0,180)" x2="-5" y2="0" stroke="#888" stroke-width="1" opacity="1"/></g><g class="mark-text role-axis-label" pointer-events="none"><text text-anchor="end" transform="translate(-7,22.5)" font-family="sans-serif" font-size="10px" fill="#000" opacity="1">Clang -O0</text><text text-anchor="end" transform="translate(-7,62.5)" font-family="sans-serif" font-size="10px" fill="#000" opacity="1">Clang -O3</text><text text-anchor="end" transform="translate(-7,102.5)" font-family="sans-serif" font-size="10px" fill="#000" opacity="1">Optimized</text><text text-anchor="end" transform="translate(-7,142.5)" font-family="sans-serif" font-size="10px" fill="#000" opacity="1">Phi</text><text text-anchor="end" transform="translate(-7,182.5)" font-family="sans-serif" font-size="10px" fill="#000" opacity="1">Stack</text></g><g class="mark-rule role-axis-domain" pointer-events="none"><line transform="translate(0,0)" x2="0" y2="200" stroke="#888" stroke-width="1" opacity="1"/></g><g class="mark-text role-axis-title" pointer-events="none"><text text-anchor="middle" transform="translate(-56.576171875,100) rotate(-90) translate(0,-2)" font-family="sans-serif" font-size="11px" font-weight="bold" fill="#000" opacity="1">Compilation Type</text></g></g><path class="foreground" aria-hidden="true" d="" pointer-events="none" display="none"/></g></g><g class="mark-rule role-mark layer_0_marks" aria-hidden="true"><line transform="translate(509.814721425,20)" x2="14.68211625000015" y2="0" stroke="black"/><line transform="translate(5.7351239250000035,60)" x2="7.7390981250000195" y2="0" stroke="black"/><line transform="translate(60.75416767500003,180)" x2="11.449302187499939" y2="0" stroke="black"/><line transform="translate(49.31099017500001,140)" x2="7.72537312499999" y2="0" stroke="black"/><line transform="translate(55.85299267499998,100)" x2="1.3439090624999963" y2="0" stroke="black"/></g><g class="mark-rule role-mark layer_1_marks" aria-hidden="true"><line transform="translate(536.2386014250001,20)" x2="26.785702499999957" y2="0" stroke="black"/><line transform="translate(21.834892987500005,60)" x2="0.6188446874999691" y2="0" stroke="black"/><line transform="translate(88.9114354875,180)" x2="14.965110937499986" y2="0" stroke="black"/><line transform="translate(68.99283329999999,140)" x2="21.14301937500001" y2="0" stroke="black"/><line transform="translate(65.6177283,100)" x2="22.488316875000024" y2="0" stroke="black"/></g><g class="mark-rect role-mark layer_2_marks" role="graphics-object" aria-roledescription="rect mark container"><path aria-label="Time (s): 0.19986582338; Compilation Type: Clang -O0; upper_box_Time (s): 0.20299696038; Max of Time (s): 0.21013981438; Q3 of Time (s): 0.20299696038; Median of Time (s): 0.20225857888; Q1 of Time (s): 0.19986582338; Min of Time (s): 0.19595059238" role="graphics-symbol" aria-roledescription="box" d="M524.4968376750002,13h11.741763749999905v14h-11.741763749999905Z" fill="#1f77b4"/><path aria-label="Time (s): 0.06359312588; Compilation Type: Clang -O3; upper_box_Time (s): 0.06582263813; Max of Time (s): 0.06598766338; Q3 of Time (s): 0.06582263813; Median of Time (s): 0.06562671788; Q1 of Time (s): 0.06359312588; Min of Time (s): 0.06152936638" role="graphics-symbol" aria-roledescription="box" d="M13.474222050000023,53h8.360670937499982v14h-8.360670937499982Z" fill="#ff7f0e"/><path aria-label="Time (s): 0.07925425863; Compilation Type: Stack; upper_box_Time (s): 0.08370971613; Max of Time (s): 0.08770041238; Q3 of Time (s): 0.08370971613; Median of Time (s): 0.08101389688; Q1 of Time (s): 0.07925425863; Min of Time (s): 0.07620111138" role="graphics-symbol" aria-roledescription="box" d="M72.20346986249997,173h16.70796562500003v14h-16.70796562500003Z" fill="#9467bd"/><path aria-label="Time (s): 0.07520969688; Compilation Type: Phi; upper_box_Time (s): 0.07839808888; Max of Time (s): 0.08403622738; Q3 of Time (s): 0.07839808888; Median of Time (s): 0.07573089438; Q1 of Time (s): 0.07520969688; Min of Time (s): 0.07314959738" role="graphics-symbol" aria-roledescription="box" d="M57.0363633,133h11.956469999999989v14h-11.956469999999989Z" fill="#d62728"/><path aria-label="Time (s): 0.07525250713; Compilation Type: Optimized; upper_box_Time (s): 0.07749806088; Max of Time (s): 0.08349494538; Q3 of Time (s): 0.07749806088; Median of Time (s): 0.07577384788; Q1 of Time (s): 0.07525250713; Min of Time (s): 0.07489413138" role="graphics-symbol" aria-roledescription="box" d="M57.19690173749998,93h8.420826562500018v14h-8.420826562500018Z" fill="#2ca02c"/></g><g class="mark-rect role-mark layer_3_marks" aria-hidden="true"><path d="M532.9696708,13h1v14h-1Z" fill="white" opacity="0.7"/><path d="M20.600192049999972,53h1v14h-1Z" fill="white" opacity="0.7"/><path d="M78.30211329999997,173h1v14h-1Z" fill="white" opacity="0.7"/><path d="M58.49085392499999,133h1v14h-1Z" fill="white" opacity="0.7"/><path d="M58.651929549999984,93h1v14h-1Z" fill="white" opacity="0.7"/></g></g><path class="foreground" aria-hidden="true" d="" display="none"/></g></g></g></svg>