<svg xmlns="http://www.w3.org/2000/svg" xmlns:xlink="http://www.w3.org/1999/xlink" version="1.1" class="marks" width="679" height="242" viewBox="0 0 679 242"><rect width="679" height="242" fill="white"/><g fill="none" stroke-miterlimit="10" transform="translate(73,5)"><g class="mark-group role-frame root" role="graphics-object" aria-roledescription="group mark container"><g transform="translate(0,0)"><path class="background" aria-hidden="true" d="M0.5,0.5h600v200h-600Z" stroke="#ddd"/><g><g class="mark-group role-axis" aria-hidden="true"><g transform="translate(0.5,200.5)"><path class="background" aria-hidden="true" d="M0,0h0v0h0Z" pointer-events="none"/><g><g class="mark-rule role-axis-grid" pointer-events="none"><line transform="translate(0,0)" x2="0" y2="-200" stroke="#ddd" stroke-width="1" opacity="1"/><line transform="translate(46,0)" x2="0" y2="-200" stroke="#ddd" stroke-width="1" opacity="1"/><line transform="translate(92,0)" x2="0" y2="-200" stroke="#ddd" stroke-width="1" opacity="1"/><line transform="translate(138,0)" x2="0" y2="-200" stroke="#ddd" stroke-width="1" opacity="1"/><line transform="translate(185,0)" x2="0" y2="-200" stroke="#ddd" stroke-width="1" opacity="1"/><line transform="translate(231,0)" x2="0" y2="-200" stroke="#ddd" stroke-width="1" opacity="1"/><line transform="translate(277,0)" x2="0" y2="-200" stroke="#ddd" stroke-width="1" opacity="1"/><line transform="translate(323,0)" x2="0" y2="-200" stroke="#ddd" stroke-width="1" opacity="1"/><line transform="translate(369,0)" x2="0" y2="-200" stroke="#ddd" stroke-width="1" opacity="1"/><line transform="translate(415,0)" x2="0" y2="-200" stroke="#ddd" stroke-width="1" opacity="1"/><line transform="translate(462,0)" x2="0" y2="-200" stroke="#ddd" stroke-width="1" opacity="1"/><line transform="translate(508,0)" x2="0" y2="-200" stroke="#ddd" stroke-width="1" opacity="1"/><line transform="translate(554,0)" x2="0" y2="-200" stroke="#ddd" stroke-width="1" opacity="1"/><line transform="translate(600,0)" x2="0" y2="-200" stroke="#ddd" stroke-width="1" opacity="1"/></g></g><path class="foreground" aria-hidden="true" d="" pointer-events="none" display="none"/></g></g><g class="mark-group role-axis" role="graphics-symbol" aria-roledescription="axis" aria-label="X-axis titled 'Time (s)' for a linear scale with values from 0.001 to 0.007"><g transform="translate(0.5,200.5)"><path class="background" aria-hidden="true" d="M0,0h0v0h0Z" pointer-events="none"/><g><g class="mark-rule role-axis-tick" pointer-events="none"><line transform="translate(0,0)" x2="0" y2="5" stroke="#888" stroke-width="1" opacity="1"/><line transform="translate(46,0)" x2="0" y2="5" stroke="#888" stroke-width="1" opacity="1"/><line transform="translate(92,0)" x2="0" y2="5" stroke="#888" stroke-width="1" opacity="1"/><line transform="translate(138,0)" x2="0" y2="5" stroke="#888" stroke-width="1" opacity="1"/><line transform="translate(185,0)" x2="0" y2="5" stroke="#888" stroke-width="1" opacity="1"/><line transform="translate(231,0)" x2="0" y2="5" stroke="#888" stroke-width="1" opacity="1"/><line transform="translate(277,0)" x2="0" y2="5" stroke="#888" stroke-width="1" opacity="1"/><line transform="translate(323,0)" x2="0" y2="5" stroke="#888" stroke-width="1" opacity="1"/><line transform="translate(369,0)" x2="0" y2="5" stroke="#888" stroke-width="1" opacity="1"/><line transform="translate(415,0)" x2="0" y2="5" stroke="#888" stroke-width="1" opacity="1"/><line transform="translate(462,0)" x2="0" y2="5" stroke="#888" stroke-width="1" opacity="1"/><line transform="translate(508,0)" x2="0" y2="5" stroke="#888" stroke-width="1" opacity="1"/><line transform="translate(554,0)" x2="0" y2="5" stroke="#888" stroke-width="1" opacity="1"/><line transform="translate(600,0)" x2="0" y2="5" stroke="#888" stroke-width="1" opacity="1"/></g><g class="mark-text role-axis-label" pointer-events="none"><text text-anchor="start" transform="translate(0,15)" font-family="sans-serif" font-size="10px" fill="#000" opacity="1">0.0010</text><text text-anchor="middle" transform="translate(46.15384615384615,15)" font-family="sans-serif" font-size="10px" fill="#000" opacity="1">0.0015</text><text text-anchor="middle" transform="translate(92.3076923076923,15)" font-family="sans-serif" font-size="10px" fill="#000" opacity="1">0.0020</text><text text-anchor="middle" transform="translate(138.46153846153848,15)" font-family="sans-serif" font-size="10px" fill="#000" opacity="1">0.0025</text><text text-anchor="middle" transform="translate(184.6153846153846,15)" font-family="sans-serif" font-size="10px" fill="#000" opacity="1">0.0030</text><text text-anchor="middle" transform="translate(230.76923076923077,15)" font-family="sans-serif" font-size="10px" fill="#000" opacity="1">0.0035</text><text text-anchor="middle" transform="translate(276.92307692307696,15)" font-family="sans-serif" font-size="10px" fill="#000" opacity="1">0.0040</text><text text-anchor="middle" transform="translate(323.07692307692304,15)" font-family="sans-serif" font-size="10px" fill="#000" opacity="1">0.0045</text><text text-anchor="middle" transform="translate(369.2307692307692,15)" font-family="sans-serif" font-size="10px" fill="#000" opacity="1">0.0050</text><text text-anchor="middle" transform="translate(415.38461538461536,15)" font-family="sans-serif" font-size="10px" fill="#000" opacity="1">0.0055</text><text text-anchor="middle" transform="translate(461.53846153846155,15)" font-family="sans-serif" font-size="10px" fill="#000" opacity="1">0.0060</text><text text-anchor="middle" transform="translate(507.6923076923077,15)" font-family="sans-serif" font-size="10px" fill="#000" opacity="1">0.0065</text><text text-anchor="middle" transform="translate(553.8461538461539,15)" font-family="sans-serif" font-size="10px" fill="#000" opacity="1">0.0070</text><text text-anchor="end" transform="translate(600,15)" font-family="sans-serif" font-size="10px" fill="#000" opacity="1">0.0075</text></g><g class="mark-rule role-axis-domain" pointer-events="none"><line transform="translate(0,0)" x2="600" y2="0" stroke="#888" stroke-width="1" opacity="1"/></g><g class="mark-text role-axis-title" pointer-events="none"><text text-anchor="middle" transform="translate(300,30)" font-family="sans-serif" font-size="11px" font-weight="bold" fill="#000" opacity="1">Time (s)</text></g></g><path class="foreground" aria-hidden="true" d="" pointer-events="none" display="none"/></g></g><g class="mark-group role-axis" role="graphics-symbol" aria-roledescription="axis" aria-label="Y-axis titled 'Compilation Type' for a discrete scale with 5 values: Clang -O0, Clang -O3, Optimized, Phi, Stack"><g transform="translate(0.5,0.5)"><path class="background" aria-hidden="true" d="M0,0h0v0h0Z" pointer-events="none"/><g><g class="mark-rule role-axis-tick" pointer-events="none"><line transform="translate(0,20)" x2="-5" y2="0" stroke="#888" stroke-width="1" opacity="1"/><line transform="translate(0,60)" x2="-5" y2="0" stroke="#888" stroke-width="1" opacity="1"/><line transform="translate(0,100)" x2="-5" y2="0" stroke="#888" stroke-width="1" opacity="1"/><line transform="translate(0,140)" x2="-5" y2="0" stroke="#888" stroke-width="1" opacity="1"/><line transform="translate(0,180)" x2="-5" y2="0" stroke="#888" stroke-width="1" opacity="1"/></g><g class="mark-text role-axis-label" pointer-events="none"><text text-anchor="end" transform="translate(-7,22.5)" font-family="sans-serif" font-size="10px" fill="#000" opacity="1">Clang -O0</text><text text-anchor="end" transform="translate(-7,62.5)" font-family="sans-serif" font-size="10px" fill="#000" opacity="1">Clang -O3</text><text text-anchor="end" transform="translate(-7,102.5)" font-family="sans-serif" font-size="10px" fill="#000" opacity="1">Optimized</text><text text-anchor="end" transform="translate(-7,142.5)" font-family="sans-serif" font-size="10px" fill="#000" opacity="1">Phi</text><text text-anchor="end" transform="translate(-7,182.5)" font-family="sans-serif" font-size="10px" fill="#000" opacity="1">Stack</text></g><g class="mark-rule role-axis-domain" pointer-events="none"><line transform="translate(0,0)" x2="0" y2="200" stroke="#888" stroke-width="1" opacity="1"/></g><g class="mark-text role-axis-title" pointer-events="none"><text text-anchor="middle" transform="translate(-56.576171875,100) rotate(-90) translate(0,-2)" font-family="sans-serif" font-size="11px" font-weight="bold" fill="#000" opacity="1">Compilation Type</text></g></g><path class="foreground" aria-hidden="true" d="" pointer-events="none" display="none"/></g></g><g class="mark-rule role-mark layer_0_marks" aria-hidden="true"><line transform="translate(55.055161846153894,20)" x2="8.038223076923018" y2="0" stroke="black"/><line transform="translate(39.66977723076921,60)" x2="8.878015384615395" y2="0" stroke="black"/><line transform="translate(52.92174646153846,180)" x2="5.071430769230751" y2="0" stroke="black"/><line transform="translate(54.59666953846152,140)" x2="7.3616538461538426" y2="0" stroke="black"/><line transform="translate(55.82297723076922,100)" x2="3.75920769230774" y2="0" stroke="black"/></g><g class="mark-rule role-mark layer_1_marks" aria-hidden="true"><line transform="translate(105.5789233846154,20)" x2="473.2304538461539" y2="0" stroke="black"/><line transform="translate(63.06587723076921,60)" x2="410.77691538461534" y2="0" stroke="black"/><line transform="translate(63.397861846153845,180)" x2="378.92443846153856" y2="0" stroke="black"/><line transform="translate(86.18930030769229,140)" x2="301.7136461538461" y2="0" stroke="black"/><line transform="translate(71.66604646153847,100)" x2="373.45271538461543" y2="0" stroke="black"/></g><g class="mark-rect role-mark layer_2_marks" role="graphics-object" aria-roledescription="rect mark container"><path aria-label="Time (s): 0.00168351167; Compilation Type: Clang -O0; upper_box_Time (s): 0.00214377167; Max of Time (s): 0.00727043492; Q3 of Time (s): 0.00214377167; Median of Time (s): 0.00191167392; Q1 of Time (s): 0.00168351167; Min of Time (s): 0.00159643092" role="graphics-symbol" aria-roledescription="box" d="M63.09338492307691,13h42.48553846153848v14h-42.48553846153848Z" fill="#1f77b4"/><path aria-label="Time (s): 0.00152593442; Compilation Type: Clang -O3; upper_box_Time (s): 0.00168321367; Max of Time (s): 0.00613329692; Q3 of Time (s): 0.00168321367; Median of Time (s): 0.00158563542; Q1 of Time (s): 0.00152593442; Min of Time (s): 0.00142975592" role="graphics-symbol" aria-roledescription="box" d="M48.54779261538461,53h14.518084615384602v14h-14.518084615384602Z" fill="#ff7f0e"/><path aria-label="Time (s): 0.00162825942; Compilation Type: Stack; upper_box_Time (s): 0.00168681017; Max of Time (s): 0.00579182492; Q3 of Time (s): 0.00168681017; Median of Time (s): 0.00165130942; Q1 of Time (s): 0.00162825942; Min of Time (s): 0.00157331892" role="graphics-symbol" aria-roledescription="box" d="M57.99317723076921,173h5.404684615384632v14h-5.404684615384632Z" fill="#9467bd"/><path aria-label="Time (s): 0.00167121517; Compilation Type: Phi; upper_box_Time (s): 0.00193371742; Max of Time (s): 0.00520228192; Q3 of Time (s): 0.00193371742; Median of Time (s): 0.00180492142; Q1 of Time (s): 0.00167121517; Min of Time (s): 0.00159146392" role="graphics-symbol" aria-roledescription="box" d="M61.95832338461536,133h24.23097692307693v14h-24.23097692307693Z" fill="#d62728"/><path aria-label="Time (s): 0.00164547367; Compilation Type: Optimized; upper_box_Time (s): 0.00177638217; Max of Time (s): 0.00582211992; Q3 of Time (s): 0.00177638217; Median of Time (s): 0.00169704492; Q1 of Time (s): 0.00164547367; Min of Time (s): 0.00160474892" role="graphics-symbol" aria-roledescription="box" d="M59.58218492307696,93h12.083861538461512v14h-12.083861538461512Z" fill="#2ca02c"/></g><g class="mark-rect role-mark layer_3_marks" aria-hidden="true"><path d="M83.65451569230773,13h1v14h-1Z" fill="white" opacity="0.7"/><path d="M53.55865415384618,53h1v14h-1Z" fill="white" opacity="0.7"/><path d="M59.620869538461555,173h1v14h-1Z" fill="white" opacity="0.7"/><path d="M73.80043876923078,133h1v14h-1Z" fill="white" opacity="0.7"/><path d="M63.84260800000001,93h1v14h-1Z" fill="white" opacity="0.7"/></g></g><path class="foreground" aria-hidden="true" d="" display="none"/></g></g></g></svg>