<svg xmlns="http://www.w3.org/2000/svg" xmlns:xlink="http://www.w3.org/1999/xlink" version="1.1" class="marks" width="679" height="242" viewBox="0 0 679 242"><rect width="679" height="242" fill="white"/><g fill="none" stroke-miterlimit="10" transform="translate(73,5)"><g class="mark-group role-frame root" role="graphics-object" aria-roledescription="group mark container"><g transform="translate(0,0)"><path class="background" aria-hidden="true" d="M0.5,0.5h600v200h-600Z" stroke="#ddd"/><g><g class="mark-group role-axis" aria-hidden="true"><g transform="translate(0.5,200.5)"><path class="background" aria-hidden="true" d="M0,0h0v0h0Z" pointer-events="none"/><g><g class="mark-rule role-axis-grid" pointer-events="none"><line transform="translate(0,0)" x2="0" y2="-200" stroke="#ddd" stroke-width="1" opacity="1"/><line transform="translate(50,0)" x2="0" y2="-200" stroke="#ddd" stroke-width="1" opacity="1"/><line transform="translate(100,0)" x2="0" y2="-200" stroke="#ddd" stroke-width="1" opacity="1"/><line transform="translate(150,0)" x2="0" y2="-200" stroke="#ddd" stroke-width="1" opacity="1"/><line transform="translate(200,0)" x2="0" y2="-200" stroke="#ddd" stroke-width="1" opacity="1"/><line transform="translate(250,0)" x2="0" y2="-200" stroke="#ddd" stroke-width="1" opacity="1"/><line transform="translate(300,0)" x2="0" y2="-200" stroke="#ddd" stroke-width="1" opacity="1"/><line transform="translate(350,0)" x2="0" y2="-200" stroke="#ddd" stroke-width="1" opacity="1"/><line transform="translate(400,0)" x2="0" y2="-200" stroke="#ddd" stroke-width="1" opacity="1"/><line transform="translate(450,0)" x2="0" y2="-200" stroke="#ddd" stroke-width="1" opacity="1"/><line transform="translate(500,0)" x2="0" y2="-200" stroke="#ddd" stroke-width="1" opacity="1"/><line transform="translate(550,0)" x2="0" y2="-200" stroke="#ddd" stroke-width="1" opacity="1"/><line transform="translate(600,0)" x2="0" y2="-200" stroke="#ddd" stroke-width="1" opacity="1"/></g></g><path class="foreground" aria-hidden="true" d="" pointer-events="none" display="none"/></g></g><g class="mark-group role-axis" role="graphics-symbol" aria-roledescription="axis" aria-label="X-axis titled 'Time (s)' for a linear scale with values from 0.001 to 0.006"><g transform="translate(0.5,200.5)"><path class="background" aria-hidden="true" d="M0,0h0v0h0Z" pointer-events="none"/><g><g class="mark-rule role-axis-tick" pointer-events="none"><line transform="translate(0,0)" x2="0" y2="5" stroke="#888" stroke-width="1" opacity="1"/><line transform="translate(50,0)" x2="0" y2="5" stroke="#888" stroke-width="1" opacity="1"/><line transform="translate(100,0)" x2="0" y2="5" stroke="#888" stroke-width="1" opacity="1"/><line transform="translate(150,0)" x2="0" y2="5" stroke="#888" stroke-width="1" opacity="1"/><line transform="translate(200,0)" x2="0" y2="5" stroke="#888" stroke-width="1" opacity="1"/><line transform="translate(250,0)" x2="0" y2="5" stroke="#888" stroke-width="1" opacity="1"/><line transform="translate(300,0)" x2="0" y2="5" stroke="#888" stroke-width="1" opacity="1"/><line transform="translate(350,0)" x2="0" y2="5" stroke="#888" stroke-width="1" opacity="1"/><line transform="translate(400,0)" x2="0" y2="5" stroke="#888" stroke-width="1" opacity="1"/><line transform="translate(450,0)" x2="0" y2="5" stroke="#888" stroke-width="1" opacity="1"/><line transform="translate(500,0)" x2="0" y2="5" stroke="#888" stroke-width="1" opacity="1"/><line transform="translate(550,0)" x2="0" y2="5" stroke="#888" stroke-width="1" opacity="1"/><line transform="translate(600,0)" x2="0" y2="5" stroke="#888" stroke-width="1" opacity="1"/></g><g class="mark-text role-axis-label" pointer-events="none"><text text-anchor="start" transform="translate(0,15)" font-family="sans-serif" font-size="10px" fill="#000" opacity="1">0.0005</text><text text-anchor="middle" transform="translate(50,15)" font-family="sans-serif" font-size="10px" fill="#000" opacity="1">0.0010</text><text text-anchor="middle" transform="translate(100,15)" font-family="sans-serif" font-size="10px" fill="#000" opacity="1">0.0015</text><text text-anchor="middle" transform="translate(150,15)" font-family="sans-serif" font-size="10px" fill="#000" opacity="1">0.0020</text><text text-anchor="middle" transform="translate(200,15)" font-family="sans-serif" font-size="10px" fill="#000" opacity="1">0.0025</text><text text-anchor="middle" transform="translate(250,15)" font-family="sans-serif" font-size="10px" fill="#000" opacity="1">0.0030</text><text text-anchor="middle" transform="translate(300,15)" font-family="sans-serif" font-size="10px" fill="#000" opacity="1">0.0035</text><text text-anchor="middle" transform="translate(350,15)" font-family="sans-serif" font-size="10px" fill="#000" opacity="1">0.0040</text><text text-anchor="middle" transform="translate(400,15)" font-family="sans-serif" font-size="10px" fill="#000" opacity="1">0.0045</text><text text-anchor="middle" transform="translate(450.00000000000006,15)" font-family="sans-serif" font-size="10px" fill="#000" opacity="1">0.0050</text><text text-anchor="middle" transform="translate(499.9999999999999,15)" font-family="sans-serif" font-size="10px" fill="#000" opacity="1">0.0055</text><text text-anchor="middle" transform="translate(550,15)" font-family="sans-serif" font-size="10px" fill="#000" opacity="1">0.0060</text><text text-anchor="end" transform="translate(600,15)" font-family="sans-serif" font-size="10px" fill="#000" opacity="1">0.0065</text></g><g class="mark-rule role-axis-domain" pointer-events="none"><line transform="translate(0,0)" x2="600" y2="0" stroke="#888" stroke-width="1" opacity="1"/></g><g class="mark-text role-axis-title" pointer-events="none"><text text-anchor="middle" transform="translate(300,30)" font-family="sans-serif" font-size="11px" font-weight="bold" fill="#000" opacity="1">Time (s)</text></g></g><path class="foreground" aria-hidden="true" d="" pointer-events="none" display="none"/></g></g><g class="mark-group role-axis" role="graphics-symbol" aria-roledescription="axis" aria-label="Y-axis titled 'Compilation Type' for a discrete scale with 5 values: Clang -O0, Clang -O3, Optimized, Phi, Stack"><g transform="translate(0.5,0.5)"><path class="background" aria-hidden="true" d="M0,0h0v0h0Z" pointer-events="none"/><g><g class="mark-rule role-axis-tick" pointer-events="none"><line transform="translate(0,20)" x2="-5" y2="0" stroke="#888" stroke-width="1" opacity="1"/><line transform="translate(0,60)" x2="-5" y2="0" stroke="#888" stroke-width="1" opacity="1"/><line transform="translate(0,100)" x2="-5" y2="0" stroke="#888" stroke-width="1" opacity="1"/><line transform="translate(0,140)" x2="-5" y2="0" stroke="#888" stroke-width="1" opacity="1"/><line transform="translate(0,180)" x2="-5" y2="0" stroke="#888" stroke-width="1" opacity="1"/></g><g class="mark-text role-axis-label" pointer-events="none"><text text-anchor="end" transform="translate(-7,22.5)" font-family="sans-serif" font-size="10px" fill="#000" opacity="1">Clang -O0</text><text text-anchor="end" transform="translate(-7,62.5)" font-family="sans-serif" font-size="10px" fill="#000" opacity="1">Clang -O3</text><text text-anchor="end" transform="translate(-7,102.5)" font-family="sans-serif" font-size="10px" fill="#000" opacity="1">Optimized</text><text text-anchor="end" transform="translate(-7,142.5)" font-family="sans-serif" font-size="10px" fill="#000" opacity="1">Phi</text><text text-anchor="end" transform="translate(-7,182.5)" font-family="sans-serif" font-size="10px" fill="#000" opacity="1">Stack</text></g><g class="mark-rule role-axis-domain" pointer-events="none"><line transform="translate(0,0)" x2="0" y2="200" stroke="#888" stroke-width="1" opacity="1"/></g><g class="mark-text role-axis-title" pointer-events="none"><text text-anchor="middle" transform="translate(-56.576171875,100) rotate(-90) translate(0,-2)" font-family="sans-serif" font-size="11px" font-weight="bold" fill="#000" opacity="1">Compilation Type</text></g></g><path class="foreground" aria-hidden="true" d="" pointer-events="none" display="none"/></g></g><g class="mark-rule role-mark layer_0_marks" aria-hidden="true"><line transform="translate(26.35861799999994,20)" x2="5.022524999999984" y2="0" stroke="black"/><line transform="translate(12.326717999999953,60)" x2="4.337699999999984" y2="0" stroke="black"/><line transform="translate(29.164917999999947,180)" x2="19.099850000000007" y2="0" stroke="black"/><line transform="translate(20.238117999999943,140)" x2="5.94755000000001" y2="0" stroke="black"/><line transform="translate(19.000517999999932,100)" x2="3.686575000000012" y2="0" stroke="black"/></g><g class="mark-rule role-mark layer_1_marks" aria-hidden="true"><line transform="translate(44.17841799999996,20)" x2="409.288" y2="0" stroke="black"/><line transform="translate(20.71994299999996,60)" x2="345.63157500000005" y2="0" stroke="black"/><line transform="translate(63.139292999999924,180)" x2="491.51852499999995" y2="0" stroke="black"/><line transform="translate(36.25341799999996,140)" x2="378.29870000000005" y2="0" stroke="black"/><line transform="translate(28.716867999999952,100)" x2="415.17545000000007" y2="0" stroke="black"/></g><g class="mark-rect role-mark layer_2_marks" role="graphics-object" aria-roledescription="rect mark container"><path aria-label="Time (s): 0.00081381143; Compilation Type: Clang -O0; upper_box_Time (s): 0.00094178418; Max of Time (s): 0.00503466418; Q3 of Time (s): 0.00094178418; Median of Time (s): 0.00086855018; Q1 of Time (s): 0.00081381143; Min of Time (s): 0.00076358618" role="graphics-symbol" aria-roledescription="box" d="M31.381142999999923,13h12.797275000000035v14h-12.797275000000035Z" fill="#1f77b4"/><path aria-label="Time (s): 0.00066664418; Compilation Type: Clang -O3; upper_box_Time (s): 0.00070719943; Max of Time (s): 0.00416351518; Q3 of Time (s): 0.00070719943; Median of Time (s): 0.00068088718; Q1 of Time (s): 0.00066664418; Min of Time (s): 0.00062326718" role="graphics-symbol" aria-roledescription="box" d="M16.664417999999937,53h4.055525000000024v14h-4.055525000000024Z" fill="#ff7f0e"/><path aria-label="Time (s): 0.00098264768; Compilation Type: Stack; upper_box_Time (s): 0.00113139293; Max of Time (s): 0.00604657818; Q3 of Time (s): 0.00113139293; Median of Time (s): 0.00106159318; Q1 of Time (s): 0.00098264768; Min of Time (s): 0.00079164918" role="graphics-symbol" aria-roledescription="box" d="M48.264767999999954,173h14.87452499999997v14h-14.87452499999997Z" fill="#9467bd"/><path aria-label="Time (s): 0.00076185668; Compilation Type: Phi; upper_box_Time (s): 0.00086253418; Max of Time (s): 0.00464552118; Q3 of Time (s): 0.00086253418; Median of Time (s): 0.00084161818; Q1 of Time (s): 0.00076185668; Min of Time (s): 0.00070238118" role="graphics-symbol" aria-roledescription="box" d="M26.185667999999954,133h10.067750000000007v14h-10.067750000000007Z" fill="#d62728"/><path aria-label="Time (s): 0.00072687093; Compilation Type: Optimized; upper_box_Time (s): 0.00078716868; Max of Time (s): 0.00493892318; Q3 of Time (s): 0.00078716868; Median of Time (s): 0.00074357518; Q1 of Time (s): 0.00072687093; Min of Time (s): 0.00069000518" role="graphics-symbol" aria-roledescription="box" d="M22.687092999999944,93h6.029775000000008v14h-6.029775000000008Z" fill="#2ca02c"/></g><g class="mark-rect role-mark layer_3_marks" aria-hidden="true"><path d="M36.35501799999995,13h1v14h-1Z" fill="white" opacity="0.7"/><path d="M17.58871799999995,53h1v14h-1Z" fill="white" opacity="0.7"/><path d="M55.65931799999993,173h1v14h-1Z" fill="white" opacity="0.7"/><path d="M33.66181799999994,133h1v14h-1Z" fill="white" opacity="0.7"/><path d="M23.85751799999995,93h1v14h-1Z" fill="white" opacity="0.7"/></g></g><path class="foreground" aria-hidden="true" d="" display="none"/></g></g></g></svg>