<svg xmlns="http://www.w3.org/2000/svg" xmlns:xlink="http://www.w3.org/1999/xlink" version="1.1" class="marks" width="679" height="242" viewBox="0 0 679 242"><rect width="679" height="242" fill="white"/><g fill="none" stroke-miterlimit="10" transform="translate(73,5)"><g class="mark-group role-frame root" role="graphics-object" aria-roledescription="group mark container"><g transform="translate(0,0)"><path class="background" aria-hidden="true" d="M0.5,0.5h600v200h-600Z" stroke="#ddd"/><g><g class="mark-group role-axis" aria-hidden="true"><g transform="translate(0.5,200.5)"><path class="background" aria-hidden="true" d="M0,0h0v0h0Z" pointer-events="none"/><g><g class="mark-rule role-axis-grid" pointer-events="none"><line transform="translate(0,0)" x2="0" y2="-200" stroke="#ddd" stroke-width="1" opacity="1"/><line transform="translate(46,0)" x2="0" y2="-200" stroke="#ddd" stroke-width="1" opacity="1"/><line transform="translate(92,0)" x2="0" y2="-200" stroke="#ddd" stroke-width="1" opacity="1"/><line transform="translate(138,0)" x2="0" y2="-200" stroke="#ddd" stroke-width="1" opacity="1"/><line transform="translate(185,0)" x2="0" y2="-200" stroke="#ddd" stroke-width="1" opacity="1"/><line transform="translate(231,0)" x2="0" y2="-200" stroke="#ddd" stroke-width="1" opacity="1"/><line transform="translate(277,0)" x2="0" y2="-200" stroke="#ddd" stroke-width="1" opacity="1"/><line transform="translate(323,0)" x2="0" y2="-200" stroke="#ddd" stroke-width="1" opacity="1"/><line transform="translate(369,0)" x2="0" y2="-200" stroke="#ddd" stroke-width="1" opacity="1"/><line transform="translate(415,0)" x2="0" y2="-200" stroke="#ddd" stroke-width="1" opacity="1"/><line transform="translate(462,0)" x2="0" y2="-200" stroke="#ddd" stroke-width="1" opacity="1"/><line transform="translate(508,0)" x2="0" y2="-200" stroke="#ddd" stroke-width="1" opacity="1"/><line transform="translate(554,0)" x2="0" y2="-200" stroke="#ddd" stroke-width="1" opacity="1"/><line transform="translate(600,0)" x2="0" y2="-200" stroke="#ddd" stroke-width="1" opacity="1"/></g></g><path class="foreground" aria-hidden="true" d="" pointer-events="none" display="none"/></g></g><g class="mark-group role-axis" role="graphics-symbol" aria-roledescription="axis" aria-label="X-axis titled 'Time (s)' for a linear scale with values from 0.000 to 0.006"><g transform="translate(0.5,200.5)"><path class="background" aria-hidden="true" d="M0,0h0v0h0Z" pointer-events="none"/><g><g class="mark-rule role-axis-tick" pointer-events="none"><line transform="translate(0,0)" x2="0" y2="5" stroke="#888" stroke-width="1" opacity="1"/><line transform="translate(46,0)" x2="0" y2="5" stroke="#888" stroke-width="1" opacity="1"/><line transform="translate(92,0)" x2="0" y2="5" stroke="#888" stroke-width="1" opacity="1"/><line transform="translate(138,0)" x2="0" y2="5" stroke="#888" stroke-width="1" opacity="1"/><line transform="translate(185,0)" x2="0" y2="5" stroke="#888" stroke-width="1" opacity="1"/><line transform="translate(231,0)" x2="0" y2="5" stroke="#888" stroke-width="1" opacity="1"/><line transform="translate(277,0)" x2="0" y2="5" stroke="#888" stroke-width="1" opacity="1"/><line transform="translate(323,0)" x2="0" y2="5" stroke="#888" stroke-width="1" opacity="1"/><line transform="translate(369,0)" x2="0" y2="5" stroke="#888" stroke-width="1" opacity="1"/><line transform="translate(415,0)" x2="0" y2="5" stroke="#888" stroke-width="1" opacity="1"/><line transform="translate(462,0)" x2="0" y2="5" stroke="#888" stroke-width="1" opacity="1"/><line transform="translate(508,0)" x2="0" y2="5" stroke="#888" stroke-width="1" opacity="1"/><line transform="translate(554,0)" x2="0" y2="5" stroke="#888" stroke-width="1" opacity="1"/><line transform="translate(600,0)" x2="0" y2="5" stroke="#888" stroke-width="1" opacity="1"/></g><g class="mark-text role-axis-label" pointer-events="none"><text text-anchor="start" transform="translate(0,15)" font-family="sans-serif" font-size="10px" fill="#000" opacity="1">0.0000</text><text text-anchor="middle" transform="translate(46.15384615384615,15)" font-family="sans-serif" font-size="10px" fill="#000" opacity="1">0.0005</text><text text-anchor="middle" transform="translate(92.3076923076923,15)" font-family="sans-serif" font-size="10px" fill="#000" opacity="1">0.0010</text><text text-anchor="middle" transform="translate(138.46153846153848,15)" font-family="sans-serif" font-size="10px" fill="#000" opacity="1">0.0015</text><text text-anchor="middle" transform="translate(184.6153846153846,15)" font-family="sans-serif" font-size="10px" fill="#000" opacity="1">0.0020</text><text text-anchor="middle" transform="translate(230.76923076923077,15)" font-family="sans-serif" font-size="10px" fill="#000" opacity="1">0.0025</text><text text-anchor="middle" transform="translate(276.92307692307696,15)" font-family="sans-serif" font-size="10px" fill="#000" opacity="1">0.0030</text><text text-anchor="middle" transform="translate(323.07692307692315,15)" font-family="sans-serif" font-size="10px" fill="#000" opacity="1">0.0035</text><text text-anchor="middle" transform="translate(369.2307692307692,15)" font-family="sans-serif" font-size="10px" fill="#000" opacity="1">0.0040</text><text text-anchor="middle" transform="translate(415.38461538461536,15)" font-family="sans-serif" font-size="10px" fill="#000" opacity="1">0.0045</text><text text-anchor="middle" transform="translate(461.53846153846155,15)" font-family="sans-serif" font-size="10px" fill="#000" opacity="1">0.0050</text><text text-anchor="middle" transform="translate(507.6923076923077,15)" font-family="sans-serif" font-size="10px" fill="#000" opacity="1">0.0055</text><text text-anchor="middle" transform="translate(553.8461538461539,15)" font-family="sans-serif" font-size="10px" fill="#000" opacity="1">0.0060</text><text text-anchor="end" transform="translate(600,15)" font-family="sans-serif" font-size="10px" fill="#000" opacity="1">0.0065</text></g><g class="mark-rule role-axis-domain" pointer-events="none"><line transform="translate(0,0)" x2="600" y2="0" stroke="#888" stroke-width="1" opacity="1"/></g><g class="mark-text role-axis-title" pointer-events="none"><text text-anchor="middle" transform="translate(300,30)" font-family="sans-serif" font-size="11px" font-weight="bold" fill="#000" opacity="1">Time (s)</text></g></g><path class="foreground" aria-hidden="true" d="" pointer-events="none" display="none"/></g></g><g class="mark-group role-axis" role="graphics-symbol" aria-roledescription="axis" aria-label="Y-axis titled 'Compilation Type' for a discrete scale with 5 values: Clang -O0, Clang -O3, Optimized, Phi, Stack"><g transform="translate(0.5,0.5)"><path class="background" aria-hidden="true" d="M0,0h0v0h0Z" pointer-events="none"/><g><g class="mark-rule role-axis-tick" pointer-events="none"><line transform="translate(0,20)" x2="-5" y2="0" stroke="#888" stroke-width="1" opacity="1"/><line transform="translate(0,60)" x2="-5" y2="0" stroke="#888" stroke-width="1" opacity="1"/><line transform="translate(0,100)" x2="-5" y2="0" stroke="#888" stroke-width="1" opacity="1"/><line transform="translate(0,140)" x2="-5" y2="0" stroke="#888" stroke-width="1" opacity="1"/><line transform="translate(0,180)" x2="-5" y2="0" stroke="#888" stroke-width="1" opacity="1"/></g><g class="mark-text role-axis-label" pointer-events="none"><text text-anchor="end" transform="translate(-7,22.5)" font-family="sans-serif" font-size="10px" fill="#000" opacity="1">Clang -O0</text><text text-anchor="end" transform="translate(-7,62.5)" font-family="sans-serif" font-size="10px" fill="#000" opacity="1">Clang -O3</text><text text-anchor="end" transform="translate(-7,102.5)" font-family="sans-serif" font-size="10px" fill="#000" opacity="1">Optimized</text><text text-anchor="end" transform="translate(-7,142.5)" font-family="sans-serif" font-size="10px" fill="#000" opacity="1">Phi</text><text text-anchor="end" transform="translate(-7,182.5)" font-family="sans-serif" font-size="10px" fill="#000" opacity="1">Stack</text></g><g class="mark-rule role-axis-domain" pointer-events="none"><line transform="translate(0,0)" x2="0" y2="200" stroke="#888" stroke-width="1" opacity="1"/></g><g class="mark-text role-axis-title" pointer-events="none"><text text-anchor="middle" transform="translate(-56.576171875,100) rotate(-90) translate(0,-2)" font-family="sans-serif" font-size="11px" font-weight="bold" fill="#000" opacity="1">Compilation Type</text></g></g><path class="foreground" aria-hidden="true" d="" pointer-events="none" display="none"/></g></g><g class="mark-rule role-mark layer_0_marks" aria-hidden="true"><line transform="translate(34.45164738461531,20)" x2="6.170815384615402" y2="0" stroke="black"/><line transform="translate(30.60177046153841,60)" x2="8.05033846153847" y2="0" stroke="black"/><line transform="translate(49.506662769230715,180)" x2="4.401715384615372" y2="0" stroke="black"/><line transform="translate(39.81518584615379,140)" x2="3.351069230769234" y2="0" stroke="black"/><line transform="translate(41.681462769230734,100)" x2="11.198976923076906" y2="0" stroke="black"/></g><g class="mark-rule role-mark layer_1_marks" aria-hidden="true"><line transform="translate(49.97161661538456,20)" x2="317.88323076923086" y2="0" stroke="black"/><line transform="translate(52.3489781538461,60)" x2="465.251376923077" y2="0" stroke="black"/><line transform="translate(66.5882935384615,180)" x2="12.68012307692311" y2="0" stroke="black"/><line transform="translate(47.00013969230764,140)" x2="509.8536" y2="0" stroke="black"/><line transform="translate(64.13583969230766,100)" x2="408.7522384615386" y2="0" stroke="black"/></g><g class="mark-rect role-mark layer_2_marks" role="graphics-object" aria-roledescription="rect mark container"><path aria-label="Time (s): 0.00044007668; Compilation Type: Clang -O0; upper_box_Time (s): 0.00054135918; Max of Time (s): 0.00398509418; Q3 of Time (s): 0.00054135918; Median of Time (s): 0.00051667418; Q1 of Time (s): 0.00044007668; Min of Time (s): 0.00037322618" role="graphics-symbol" aria-roledescription="box" d="M40.622462769230715,13h9.349153846153847v14h-9.349153846153847Z" fill="#1f77b4"/><path aria-label="Time (s): 0.00041873118; Compilation Type: Clang -O3; upper_box_Time (s): 0.00056711393; Max of Time (s): 0.00560733718; Q3 of Time (s): 0.00056711393; Median of Time (s): 0.00051271518; Q1 of Time (s): 0.00041873118; Min of Time (s): 0.00033151918" role="graphics-symbol" aria-roledescription="box" d="M38.65210892307688,53h13.696869230769217v14h-13.696869230769217Z" fill="#ff7f0e"/><path aria-label="Time (s): 0.00058400743; Compilation Type: Stack; upper_box_Time (s): 0.00072137318; Max of Time (s): 0.00085874118; Q3 of Time (s): 0.00072137318; Median of Time (s): 0.00067673218; Q1 of Time (s): 0.00058400743; Min of Time (s): 0.00053632218" role="graphics-symbol" aria-roledescription="box" d="M53.90837815384609,173h12.679915384615413v14h-12.679915384615413Z" fill="#9467bd"/><path aria-label="Time (s): 0.00046763443; Compilation Type: Phi; upper_box_Time (s): 0.00050916818; Max of Time (s): 0.00603258218; Q3 of Time (s): 0.00050916818; Median of Time (s): 0.00048213868; Q1 of Time (s): 0.00046763443; Min of Time (s): 0.00043133118" role="graphics-symbol" aria-roledescription="box" d="M43.16625507692302,133h3.833884615384619v14h-3.833884615384619Z" fill="#d62728"/><path aria-label="Time (s): 0.00057287143; Compilation Type: Optimized; upper_box_Time (s): 0.00069480493; Max of Time (s): 0.00512295418; Q3 of Time (s): 0.00069480493; Median of Time (s): 0.00059842568; Q1 of Time (s): 0.00057287143; Min of Time (s): 0.00045154918" role="graphics-symbol" aria-roledescription="box" d="M52.88043969230764,93h11.255400000000016v14h-11.255400000000016Z" fill="#2ca02c"/></g><g class="mark-rect role-mark layer_3_marks" aria-hidden="true"><path d="M47.193001230769184,13h1v14h-1Z" fill="white" opacity="0.7"/><path d="M46.82755507692303,53h1v14h-1Z" fill="white" opacity="0.7"/><path d="M61.9675858461538,173h1v14h-1Z" fill="white" opacity="0.7"/><path d="M44.005108923076854,133h1v14h-1Z" fill="white" opacity="0.7"/><path d="M54.7392935384615,93h1v14h-1Z" fill="white" opacity="0.7"/></g></g><path class="foreground" aria-hidden="true" d="" display="none"/></g></g></g></svg>